<?xml version="1.0" encoding="UTF-8" standalone="no"?><svg xmlns="http://www.w3.org/2000/svg" xmlns:xlink="http://www.w3.org/1999/xlink" width="500" zoomAndPan="magnify" viewBox="0 0 375 374.999991" height="500" preserveAspectRatio="xMidYMid meet" version="1.0"><defs><g/><clipPath id="53d8cbb27e"><path d="M 41 3 L 281 3 L 281 262.75 L 41 262.75 Z M 41 3 " clip-rule="nonzero"/></clipPath><clipPath id="828d00e800"><path d="M 30.292969 13 L 206 13 L 206 253 L 30.292969 253 Z M 30.292969 13 " clip-rule="nonzero"/></clipPath><clipPath id="243747cc10"><rect x="0" width="127" y="0" height="92"/></clipPath><clipPath id="5ff39b18dc"><rect x="0" width="179" y="0" height="92"/></clipPath><clipPath id="01180ff5e0"><rect x="0" width="99" y="0" height="40"/></clipPath></defs><g clip-path="url(#53d8cbb27e)"><path fill="#5eb23f" d="M 162.792969 262.75 C 266.183594 217.546875 190.519531 148.84375 246.929688 65.324219 C 251.925781 105.363281 261.949219 148.800781 239.761719 191.148438 C 262.453125 155.347656 273.441406 80.097656 241.269531 46.898438 C 232.882812 38.253906 223.109375 30.613281 212.117188 24.359375 C 153.3125 -8.964844 79.449219 8.746094 41.824219 63.433594 C 78.652344 5.976562 154.402344 -13.246094 214.46875 20.835938 C 226.714844 27.757812 237.371094 36.40625 246.34375 46.269531 C 249.15625 49.332031 251.800781 52.519531 254.230469 55.839844 C 284.347656 95.792969 289.714844 151.363281 263.5 197.65625 C 241.773438 235.972656 203.519531 258.972656 162.792969 262.75 " fill-opacity="1" fill-rule="evenodd"/></g><g clip-path="url(#828d00e800)"><path fill="#003c25" d="M 93.542969 32.453125 C 93.164062 34.300781 93.75 36.148438 94.589844 37.28125 C 95.34375 37.027344 96.351562 36.230469 96.9375 35.6875 C 96.898438 34.46875 96.394531 34.382812 95.890625 33.417969 C 95.175781 32.117188 95.09375 32.371094 93.542969 32.453125 Z M 88.886719 36.273438 C 89.890625 36.777344 90.898438 36.777344 91.445312 35.6875 C 92.242188 32.917969 89.222656 32.117188 87.921875 33.964844 C 87.167969 35.097656 87.921875 35.769531 88.886719 36.273438 Z M 87.753906 52.769531 C 88.003906 51.761719 88.300781 52.558594 88.089844 50.25 C 86.664062 49.789062 85.570312 49.996094 84.566406 51.085938 C 83.015625 52.769531 84.273438 53.058594 83.769531 54.488281 C 82.511719 54.65625 82.679688 54.195312 81.292969 54.65625 C 80.328125 57.214844 82.511719 57.007812 83.601562 57.929688 C 84.019531 58.265625 84.1875 58.601562 84.566406 58.894531 C 89.136719 58.226562 87.5 53.773438 87.753906 52.769531 Z M 96.058594 48.527344 C 94.757812 48.152344 93.289062 47.269531 90.898438 48.609375 C 89.808594 49.160156 89.683594 52.097656 89.683594 53.3125 L 89.765625 54.695312 L 91.949219 54.824219 C 92.746094 51.550781 92.410156 53.4375 94.421875 51.925781 C 95.136719 51.339844 95.050781 50.878906 95.472656 50.25 C 96.140625 49.242188 96.101562 49.871094 96.058594 48.527344 Z M 95.136719 41.8125 C 95.136719 44.078125 95.050781 44.414062 96.015625 45.96875 L 106.628906 44.582031 C 107.96875 44.457031 110.90625 45.550781 110.90625 41.097656 C 110.90625 39.882812 109.730469 39.210938 108.265625 39.210938 C 105.789062 39.210938 102.980469 42.359375 100.292969 41.476562 C 98.867188 41.015625 100.335938 41.226562 98.238281 40.972656 L 98.070312 40.933594 L 97.777344 40.847656 C 98.363281 39.546875 98.867188 41.269531 98.867188 39.378906 C 98.867188 38.160156 97.441406 38.117188 96.308594 38.078125 C 95.050781 38.035156 93.960938 37.867188 92.914062 37.992188 C 91.613281 38.203125 91.949219 39.546875 92.746094 40.257812 C 93.457031 40.890625 94.632812 40.890625 95.136719 41.8125 Z M 83.097656 42.191406 C 82.679688 43.953125 82.972656 44.75 85.238281 46.304688 C 85.738281 46.683594 86.621094 46.808594 87.417969 46.597656 C 89.222656 46.136719 89.054688 45.171875 89.097656 44.835938 L 91.402344 46.515625 C 93.625 45.886719 94.546875 45.085938 93.375 43.03125 L 91.359375 42.859375 C 90.605469 41.476562 90.394531 39.421875 88.089844 40.890625 C 86.453125 41.941406 85.570312 42.191406 83.097656 42.191406 Z M 66.949219 49.621094 C 67.578125 52.054688 72.023438 53.105469 74.414062 51.925781 C 76.175781 51.085938 75.757812 50.039062 77.433594 49.535156 C 78.820312 49.160156 78.148438 49.285156 79.113281 48.570312 C 79.65625 48.152344 80.582031 47.941406 81.042969 47.5625 C 81 45.757812 80.75 45.925781 79.574219 45.253906 C 79.824219 44.582031 79.785156 44.835938 79.617188 43.617188 C 76.554688 43.492188 78.023438 45.128906 76.847656 47.269531 L 74.078125 45.714844 C 72.90625 44.792969 72.652344 44.457031 71.183594 45.550781 C 69.84375 46.554688 67.496094 48.191406 66.949219 49.621094 Z M 122.148438 179.222656 C 120.386719 178.214844 115.226562 177.460938 114.515625 181.996094 C 115.730469 182.203125 115.6875 181.824219 116.863281 182.328125 C 119 183.167969 121.894531 182.289062 123.152344 181.363281 C 123.152344 180.523438 123.027344 179.726562 122.148438 179.222656 Z M 114.09375 177.417969 C 113.128906 177.082031 112.542969 176.496094 111.492188 175.949219 C 110.570312 175.488281 109.480469 175.066406 108.640625 174.648438 C 101.050781 171.039062 101.59375 173.011719 98.867188 173.054688 L 98.867188 175.320312 C 102.769531 175.027344 103.480469 174.902344 107.800781 177.207031 C 110.277344 178.550781 109.269531 178.84375 110.824219 178.96875 L 111.367188 179.015625 C 111.660156 179.097656 113.882812 181.238281 114.09375 177.417969 Z M 191.1875 76.394531 C 192.28125 76.144531 192.53125 75.808594 193.414062 77.027344 C 193.242188 77.738281 193.703125 77.363281 192.488281 77.65625 C 193.242188 81.683594 193.453125 78.578125 193.621094 81.054688 C 195.046875 81.347656 194.625 81.015625 195.046875 82.523438 C 198.570312 83.027344 197.058594 83.742188 198.863281 83.742188 C 200.039062 83.742188 202.132812 82.777344 202.890625 82.273438 C 203.9375 81.601562 205.113281 80.132812 205.996094 79.796875 C 205.996094 77.65625 205.617188 76.5625 204.445312 75.347656 C 201.378906 72.199219 202.054688 74.550781 200.582031 74.550781 L 195.214844 74.550781 C 193.957031 74.550781 195.425781 73.625 192.699219 73.292969 C 191.816406 74.464844 191.441406 74.382812 191.1875 76.394531 Z M 144.589844 48.488281 C 145.050781 51.214844 142.53125 51.464844 144.421875 53.773438 C 146.222656 53.648438 145.511719 52.769531 147.609375 52.558594 C 147.859375 52.976562 147.945312 52.976562 148.152344 53.4375 C 148.445312 54.152344 148.113281 53.984375 148.613281 54.488281 C 149.328125 55.246094 150.503906 54.402344 149.871094 56.503906 C 148.238281 56.335938 148.90625 55.371094 147.355469 55.371094 C 143.496094 55.371094 144.921875 61.582031 146.855469 61.582031 C 148.152344 61.582031 148.78125 61.121094 149.789062 60.703125 C 149.789062 59.648438 149.703125 59.648438 149.285156 58.9375 L 150.542969 58.9375 C 151.972656 63.34375 147.984375 62.378906 147.230469 64.476562 C 147.0625 64.980469 146.601562 65.359375 146.601562 66.027344 C 146.6875 76.773438 147.019531 70.351562 147.984375 74.464844 C 148.195312 75.390625 148.40625 76.984375 148.488281 78.117188 C 149.832031 78.035156 150.207031 77.488281 151.339844 77.863281 C 151.296875 78.578125 150.542969 78.828125 150.542969 80.175781 C 150.542969 83.027344 150.839844 83.53125 152.640625 85.628906 C 153.1875 86.261719 153.773438 86.550781 154.023438 87.183594 C 154.65625 88.988281 153.5625 88.945312 156.078125 89.53125 C 160.484375 90.582031 160.402344 94.234375 163.882812 91.589844 C 163.921875 89.027344 164.761719 88.316406 164.847656 86.300781 C 164.929688 83.824219 165.351562 82.941406 166.902344 81.9375 C 166.902344 80.339844 166.777344 78.957031 167.195312 77.570312 C 167.824219 75.640625 168.160156 76.816406 168.707031 74.464844 C 171.304688 73.960938 172.941406 74.046875 174.914062 72.578125 C 177.347656 70.730469 178.351562 68.253906 179.234375 67.582031 C 179.273438 67.542969 179.738281 67.246094 179.820312 67.207031 C 181.078125 66.449219 182.800781 66.324219 184.476562 65.945312 C 190.9375 64.644531 187.160156 63.257812 191.0625 63.257812 C 191.480469 62.464844 191.984375 62 192.40625 61.246094 C 192.910156 60.324219 192.78125 59.609375 193.578125 59.019531 L 192.824219 56.714844 C 192.53125 55.035156 192.363281 56.207031 191.691406 54.992188 C 191.441406 54.027344 192.070312 51.925781 191.984375 51.382812 C 191.777344 50.207031 191.3125 51.507812 191.3125 50.125 C 191.3125 49.117188 191.652344 49.367188 191.816406 49.199219 C 192.195312 48.78125 192.320312 48.738281 192.28125 48.78125 C 192.488281 48.527344 192.238281 48.820312 192.488281 48.402344 C 192.824219 47.855469 192.613281 48.027344 193.074219 47.476562 C 195.507812 44.289062 193.203125 44.835938 192.824219 42.820312 C 193.996094 42.945312 193.746094 43.742188 195.003906 44.203125 C 195.84375 43.367188 196.097656 43.15625 195.96875 41.5625 C 192.363281 40.722656 194.375 41.015625 192.238281 39.167969 C 192.109375 39.085938 187.875 36.191406 190.558594 36.191406 C 191.652344 36.191406 192.027344 36.902344 193.035156 36.191406 C 193.996094 34.972656 191.441406 33.753906 190.976562 33.375 C 190.054688 32.707031 188.714844 31.992188 188.714844 30.5625 C 188.714844 26.578125 192.027344 25.445312 192.070312 22.382812 C 180.199219 18.644531 184.390625 21.710938 182.167969 21.878906 L 182.253906 19.566406 C 178.816406 18.394531 180.617188 19.066406 177.933594 20.195312 C 177.347656 19.441406 177.851562 19.695312 177.390625 18.8125 C 177.054688 18.144531 177.011719 18.394531 176.675781 17.847656 C 176.378906 17.429688 176.300781 16.964844 176.085938 16.714844 C 175.710938 16.210938 175.417969 16.296875 175.164062 15.878906 L 192.992188 21.25 C 183.59375 17.59375 173.695312 15.078125 163.378906 13.859375 C 163.417969 13.902344 163.464844 13.902344 163.464844 13.902344 C 162.371094 16.210938 160.105469 14.363281 159.058594 14.363281 C 157.128906 14.363281 158.597656 14.910156 156.414062 15.164062 C 152.472656 15.667969 148.570312 15.582031 144.671875 15.328125 C 142.574219 15.203125 141.316406 16.171875 139.136719 15.832031 C 137.625 15.582031 136.410156 14.953125 134.6875 15.164062 C 130.074219 15.792969 126.132812 16.757812 121.601562 17.511719 C 117.15625 18.269531 114.175781 20.574219 109.4375 20.574219 C 108.558594 21.542969 109.226562 21.753906 107.507812 21.878906 C 106.292969 22.003906 105.664062 22.210938 105.285156 23.222656 C 105.875 24.4375 106.292969 23.679688 106.753906 24.898438 C 104.574219 24.941406 105.664062 24.355469 104.363281 24.355469 L 102.390625 24.355469 C 101.847656 24.6875 98.617188 27.753906 98.113281 28.257812 C 97.191406 29.261719 97.566406 29.851562 98.15625 31.152344 C 99.582031 34.21875 100.292969 33.375 102.015625 32.664062 C 102.894531 33.671875 102.683594 33.292969 102.644531 35.515625 C 101.890625 36.0625 100.882812 36.648438 100.210938 37.40625 C 100.253906 37.449219 100.460938 37.742188 100.546875 37.828125 C 102.097656 39.546875 107.886719 37.992188 108.976562 36.984375 C 110.234375 37.574219 110.109375 37.910156 111.828125 37.324219 C 115.855469 35.851562 113.589844 35.265625 115.101562 32.496094 C 116.023438 30.859375 116.148438 31.195312 117.535156 30.898438 C 119.085938 30.523438 119.882812 26.03125 123.488281 24.269531 C 125.710938 23.222656 126.46875 22.507812 128.398438 20.910156 C 129.867188 19.738281 129.699219 20.324219 129.738281 18.058594 C 130.957031 17.972656 132.003906 18.144531 133.515625 17.679688 C 134.480469 17.386719 135.945312 16.839844 137.078125 17.386719 C 137.039062 18.394531 137.164062 17.972656 135.570312 18.519531 C 133.683594 19.148438 132.296875 20.15625 130.453125 20.703125 L 130.496094 22.464844 C 131.417969 22.507812 131.960938 22.589844 132.425781 23.222656 C 131.960938 24.230469 131.792969 23.261719 130.996094 24.898438 C 127.476562 24.898438 127.140625 26.367188 124.410156 27.164062 C 123.320312 27.5 122.566406 27.039062 122.566406 28.128906 C 122.566406 32.707031 126.886719 29.640625 130.453125 30.773438 C 129.488281 33.335938 126.132812 31.402344 124.664062 31.78125 C 124.078125 31.949219 123.742188 32.328125 123.320312 32.621094 C 123.449219 35.011719 124.035156 33.921875 125.167969 34.46875 C 125.839844 34.761719 126.046875 36.019531 126.425781 36.695312 C 129.570312 36.273438 132.675781 35.8125 135.863281 35.8125 C 137.917969 35.8125 141.023438 39.25 141.738281 40.804688 C 142.15625 41.726562 141.902344 41.183594 142.40625 41.855469 C 142.953125 42.652344 144.460938 47.816406 144.589844 48.488281 Z M 110.738281 59.945312 C 111.957031 60.867188 112.585938 62.671875 112.585938 64.5625 C 113.800781 64.5625 115.730469 64.6875 115.730469 65.863281 C 114.890625 66.617188 113.003906 65.945312 111.703125 66.449219 C 110.738281 67.078125 110.320312 70.351562 113.085938 70.144531 C 115.605469 69.933594 115.730469 67.710938 117.449219 67.835938 C 117.703125 72.242188 116.359375 70.144531 115.183594 73.710938 C 114.976562 74.382812 115.101562 74.800781 114.976562 75.640625 C 110.992188 75.851562 109.4375 76.019531 109.4375 79.417969 C 113.085938 80.59375 111.914062 79.753906 115.351562 78.871094 C 119.632812 82.1875 116.234375 82.652344 123.363281 85.839844 C 124.957031 86.550781 125.542969 87.140625 127.011719 86.261719 C 126.59375 83.238281 123.699219 83.28125 123.53125 81.769531 C 125.710938 81.9375 127.140625 83.445312 129.320312 83.949219 C 130.828125 79.628906 129.613281 79.546875 128.1875 77.863281 C 125.964844 75.261719 125.460938 75.558594 125.585938 72.03125 C 128.691406 72.535156 127.644531 76.523438 130.996094 76.4375 C 133.429688 76.394531 134.480469 70.6875 134.394531 70.519531 C 133.765625 69.054688 133.136719 69.890625 132.089844 69.054688 L 130.035156 67.207031 C 126.132812 63.933594 126.34375 66.324219 126.300781 63.257812 C 126.972656 63.21875 127.097656 63.175781 127.433594 62.96875 C 127.433594 62.796875 126.761719 58.097656 126.425781 58.644531 C 126.382812 58.726562 126.214844 58.558594 126.089844 58.476562 C 124.789062 57.761719 125.417969 58.054688 124.582031 57.257812 C 123.449219 56.25 123.449219 57.171875 122.316406 56.125 C 120.261719 54.195312 121.351562 53.355469 117.996094 54.027344 C 117.617188 53.480469 117.242188 53.1875 116.738281 52.640625 C 116.066406 51.84375 115.3125 50.164062 114.808594 49.160156 C 114.175781 47.898438 114.386719 49.03125 114.429688 47.351562 C 110.863281 46.46875 114.050781 46.722656 108.265625 46.722656 C 107.214844 46.722656 107.929688 47.183594 106.042969 47.269531 C 105.539062 47.3125 105.453125 47.226562 104.992188 47.394531 C 104.363281 47.605469 105.160156 47.523438 104.027344 47.980469 C 101.679688 45 97.484375 50.292969 96.394531 52.683594 C 96.058594 53.3125 95.472656 55.371094 95.175781 55.875 C 96.601562 57.007812 96.773438 56.207031 97.945312 57.886719 C 97.066406 59.359375 97.105469 58.433594 96.476562 60.742188 C 99.75 61.496094 104.488281 61.539062 108.011719 61.121094 C 110.152344 60.824219 109.480469 60.449219 110.738281 59.945312 Z M 90.480469 102.628906 C 92.871094 103.46875 95.007812 104.683594 97.105469 106.027344 C 99.078125 107.289062 100.714844 106.15625 102.015625 107.664062 C 102.726562 109.300781 100.839844 113.832031 103.480469 115.261719 L 105.578125 116.476562 C 108.558594 115.007812 106.042969 112.785156 106.042969 110.476562 L 106.417969 108.167969 C 106.839844 106.824219 106.25 107.582031 107.550781 107.078125 C 109.144531 106.53125 108.640625 106.320312 109.398438 104.8125 C 110.195312 103.257812 110.027344 103.550781 109.648438 101.578125 C 109.019531 98.050781 106.839844 97.296875 108.011719 95.828125 C 109.144531 94.402344 109.0625 95.199219 109.019531 92.636719 C 109.019531 91.253906 109.0625 89.871094 109.019531 88.484375 C 109.019531 85.082031 107.84375 85.757812 116.570312 85.839844 C 117.15625 86.722656 118.792969 88.484375 119.503906 88.988281 C 120.511719 89.617188 120.804688 89.199219 121.308594 90.375 C 122.777344 93.730469 120.847656 95.535156 120.722656 96.792969 C 121.601562 96.792969 122.273438 96.5 122.820312 96.667969 C 124.371094 97.089844 124.285156 98.558594 126.382812 96.332031 C 128.230469 94.402344 126.886719 93.6875 127.976562 92.347656 C 129.445312 90.539062 130.703125 93.605469 131.164062 94.652344 C 131.878906 96.121094 132.71875 97.339844 133.304688 98.890625 C 133.386719 99.101562 133.472656 99.3125 133.554688 99.605469 C 133.765625 100.109375 133.890625 100.152344 133.976562 100.445312 C 134.4375 102.039062 132.214844 102.039062 135.023438 104.222656 C 135.90625 104.894531 136.367188 105.691406 137.078125 106.53125 L 140.140625 106.699219 L 141.191406 109.050781 C 141.273438 109.300781 141.398438 109.71875 141.566406 109.929688 C 142.40625 111.023438 141.484375 109.972656 142.238281 110.433594 C 142.785156 110.773438 142.574219 110.519531 142.910156 110.980469 C 144.167969 112.574219 143.621094 115.300781 143.621094 117.566406 C 143.621094 118.996094 142.699219 118.28125 142.910156 120.546875 C 144.292969 121.050781 144.167969 120.96875 145.929688 121.011719 C 146.433594 122.226562 146.390625 121.429688 146.644531 123.195312 C 146.8125 124.410156 147.105469 124.453125 147.777344 125.25 C 148.867188 126.550781 148.699219 128.609375 146.601562 128.144531 C 143.328125 127.433594 144.085938 125.667969 137.039062 125.667969 C 137.375 124.453125 138.042969 123.78125 138.503906 122.648438 C 139.09375 121.222656 140.476562 118.785156 140.351562 117.484375 C 138.003906 116.984375 137.878906 118.15625 137.667969 119.125 C 136.996094 119.207031 132.59375 119.753906 132.214844 120.003906 C 132.507812 120.382812 132.886719 120.421875 133.472656 120.421875 L 133.429688 122.6875 C 129.949219 122.6875 130.957031 122.648438 129.445312 120.800781 C 128.398438 119.5 126.34375 120.257812 124.957031 120.84375 C 122.734375 121.726562 122.691406 121.640625 121.601562 123.613281 C 120.679688 125.25 119.128906 125.417969 119 127.222656 C 121.097656 127.011719 120.804688 125 123.320312 123.363281 C 124.328125 122.6875 126.761719 121.136719 128.105469 121.640625 C 130.746094 122.605469 126.972656 124.410156 129.65625 126.71875 C 130.242188 127.179688 131.039062 127.304688 131.667969 127.640625 C 133.554688 128.480469 134.6875 128.1875 136.660156 127.765625 C 136.660156 130.203125 136.746094 129.78125 135.445312 131.085938 C 134.4375 132.007812 133.976562 132.21875 132.425781 132.46875 C 131.039062 132.679688 130.828125 133.433594 129.738281 134.191406 C 128.398438 135.113281 128.398438 135.070312 126.425781 135.070312 C 126.007812 132.71875 127.222656 133.894531 127.222656 132.132812 C 124.707031 131.964844 126.046875 132.761719 123.992188 133.308594 C 122.859375 133.601562 122.316406 133.6875 121.476562 134.441406 L 119.589844 136.203125 C 119.128906 136.960938 119.546875 138.304688 119.546875 139.394531 C 118.164062 139.855469 116.863281 140.316406 115.730469 141.199219 C 114.09375 142.417969 114.34375 142.835938 113.464844 144.808594 C 112.878906 146.152344 112.292969 147.285156 111.785156 149.007812 C 110.445312 153.578125 110.863281 152.070312 108.472656 154.460938 C 107.132812 155.804688 104.699219 156.894531 103.734375 158.53125 C 101.761719 161.972656 105.707031 163.316406 105.664062 168.898438 L 105.621094 169.863281 C 104.910156 169.863281 104.152344 169.863281 103.609375 169.65625 C 102.644531 169.277344 101.59375 166.550781 101.21875 165.457031 C 99.707031 161.386719 99.707031 160.503906 91.78125 161.472656 L 91.445312 162.898438 C 88.589844 163.316406 88.550781 161.761719 86.035156 161.761719 C 84.648438 161.761719 81.589844 164.28125 81.589844 165.5 C 81.589844 173.769531 80.875 171.542969 83.265625 176.074219 C 83.894531 177.253906 84.398438 178.59375 85.78125 178.929688 C 88.84375 179.644531 91.109375 177.796875 91.570312 174.730469 C 94.339844 174.730469 93.835938 174.4375 95.722656 175.570312 C 95.597656 177.921875 94.925781 178.257812 94.925781 182.707031 C 96.433594 183.632812 98.910156 183.796875 100.671875 184.554688 C 102.769531 185.476562 102.097656 188.375 102.097656 191.140625 C 102.433594 191.730469 103.230469 192.445312 103.691406 192.777344 C 104.742188 193.660156 104.824219 193.367188 106.125 193.242188 C 110.195312 192.777344 108.472656 193.832031 111.199219 194.5 C 112.292969 193.832031 112.710938 192.527344 114.304688 191.816406 C 114.976562 191.5625 115.8125 191.355469 116.527344 191.101562 C 119.042969 190.175781 115.4375 187.953125 122.945312 191.605469 L 125 192.695312 C 127.347656 193.785156 131.542969 192.316406 133.054688 193.242188 C 134.019531 193.832031 133.347656 193.996094 134.101562 194.625 C 134.6875 195.046875 136.113281 195.253906 137.414062 196.222656 C 138.378906 196.933594 141.023438 199.328125 141.738281 199.496094 C 145.21875 200.335938 148.992188 198.90625 151.59375 204.238281 C 153.5625 208.394531 150.796875 207.175781 155.578125 208.097656 C 156.582031 208.269531 157.171875 208.519531 158.21875 208.851562 C 162.207031 210.070312 161.53125 210.871094 164.425781 210.449219 C 166.691406 210.113281 172.3125 213.136719 174.410156 213.890625 C 174.410156 218.800781 173.90625 218.046875 171.054688 220.734375 C 170.003906 221.699219 168.832031 222.242188 168.367188 223.210938 C 168.078125 223.667969 167.660156 226.316406 167.320312 227.277344 C 166.566406 229.417969 164.972656 232.066406 163.085938 233.28125 C 162.078125 233.953125 159.4375 233.070312 155.15625 235.882812 C 153.984375 236.679688 153.898438 238.738281 150.503906 241.464844 C 149.871094 241.96875 149.539062 242.011719 149.074219 242.515625 C 148.152344 243.523438 149.035156 243.3125 147.480469 243.648438 C 142.492188 244.613281 144.460938 246.332031 140.519531 246.835938 C 139.304688 247.007812 137.332031 247.464844 136.492188 247.96875 C 134.394531 249.273438 133.386719 251.117188 131.585938 252.125 C 131.125 252.378906 131.542969 252.125 131.125 252.417969 C 130.828125 252.628906 129.992188 253.300781 128.144531 252.378906 C 126.972656 251.832031 125.585938 252.253906 124.246094 251.914062 C 124.117188 249.859375 123.28125 251.789062 124.117188 249.816406 C 124.582031 248.683594 124.582031 248.179688 123.867188 247.425781 C 121.980469 245.453125 122.023438 245.453125 123.113281 242.894531 C 124.371094 239.871094 122.609375 239.914062 123.363281 237.8125 C 123.617188 237.226562 123.617188 237.730469 123.699219 236.636719 L 123.824219 229.546875 C 123.65625 228.664062 123.867188 229.460938 123.40625 228.832031 C 122.441406 227.574219 122.859375 227.53125 121.183594 226.859375 C 115.898438 224.675781 115.519531 223.628906 112.332031 219.347656 C 111.871094 218.71875 111.660156 218.257812 111.242188 217.753906 C 104.65625 209.441406 107.84375 213.679688 107.214844 208.601562 C 107.132812 207.679688 107.132812 206.753906 107.175781 205.792969 C 108.222656 204.867188 110.90625 202.222656 110.90625 200.671875 C 110.90625 199.15625 109.566406 196.011719 108.011719 196.011719 C 103.355469 196.011719 105.957031 197.230469 101.425781 194.585938 C 98.785156 192.988281 97.527344 188.835938 94.714844 187.828125 C 93.710938 187.492188 93.710938 187.492188 92.828125 187.03125 C 91.820312 186.484375 91.527344 186.777344 90.773438 186.441406 C 90.058594 186.105469 90.269531 185.730469 89.304688 185.226562 C 88.214844 184.597656 88.550781 184.929688 87.710938 184.09375 C 86.621094 182.957031 85.027344 183.292969 83.558594 183.167969 C 82.214844 183.042969 81.335938 182.078125 80.035156 181.53125 C 76.300781 179.9375 72.738281 177.835938 71.605469 173.808594 C 70.847656 171.082031 68.878906 169.484375 67.367188 167.304688 L 61.707031 158.28125 C 61.078125 157.441406 61.621094 157.902344 60.867188 157.691406 C 60.574219 158.574219 60.65625 158.699219 61.160156 159.332031 C 62.417969 160.96875 61.328125 160.96875 62.378906 161.808594 L 63.507812 163.570312 C 63.886719 164.449219 64.304688 165.121094 64.894531 166.085938 C 65.773438 167.511719 68.710938 169.109375 66.488281 170.871094 C 64.265625 170.578125 62.542969 165.875 61.371094 164.238281 C 60.488281 163.066406 59.945312 161.722656 59.316406 160.464844 C 58.140625 158.152344 57.59375 153.875 55.496094 152.277344 C 53.234375 150.640625 49.457031 142.582031 49.457031 140.570312 C 49.457031 137.503906 49.078125 134.441406 49.75 131.335938 C 49.960938 130.242188 50.421875 130.414062 49.835938 129.152344 C 48.828125 127.054688 50.253906 126.804688 48.367188 124.496094 C 45.726562 121.261719 48.03125 120.214844 46.523438 117.316406 C 46.144531 116.605469 45.976562 116.226562 45.304688 115.722656 C 44.128906 114.839844 47.066406 111.566406 42.703125 111.566406 C 42.703125 109.890625 41.65625 108.042969 41.445312 106.28125 C 41.320312 105.316406 41.613281 105.648438 41.109375 104.894531 L 39.683594 102.835938 C 38.71875 101.957031 38.425781 102.417969 37.753906 102.964844 C 36.75 103.804688 37.210938 103.214844 36.371094 103.59375 C 35.53125 103.929688 35.238281 105.1875 34.945312 106.027344 C 34.066406 108.671875 35.363281 110.8125 32.554688 111.527344 C 31.714844 110.058594 32.679688 108.757812 31.839844 107.871094 C 31.335938 110.601562 30.792969 109.132812 30.375 111.023438 C 32.679688 98.976562 36.792969 87.558594 42.410156 77.027344 C 42.242188 77.445312 42.203125 77.78125 42.242188 77.992188 C 43.125 78.539062 44.128906 77.488281 45.179688 77.152344 C 46.5625 76.730469 47.488281 76.855469 49.164062 76.773438 C 49.542969 76.144531 49.585938 75.769531 49.960938 75.140625 C 50.339844 74.507812 50.800781 74.128906 51.179688 73.667969 C 52.898438 71.738281 53.234375 72.285156 55.496094 72.285156 C 56.839844 72.285156 58.894531 70.730469 60.152344 70.6875 C 61.117188 70.6875 63.046875 71.191406 64.054688 71.652344 C 64.808594 71.949219 64.683594 71.863281 65.144531 72.285156 L 64.9375 74.253906 C 65.4375 74.507812 67.328125 73.625 69.421875 73.625 C 70.429688 73.625 70.222656 74.464844 70.976562 74.96875 C 71.3125 75.21875 71.351562 75.179688 71.8125 75.261719 C 71.855469 73.375 72.234375 73.585938 71.144531 72.367188 C 70.179688 71.277344 70.722656 71.53125 69.171875 71.53125 C 68.164062 71.53125 68.5 72.914062 66.824219 71.066406 C 65.4375 69.511719 65.648438 70.519531 64.097656 69.722656 C 63.804688 68.171875 64.640625 67.625 65.859375 67.289062 C 67.660156 66.828125 67.285156 66.996094 68.375 65.777344 C 66.90625 65.066406 66.695312 66.324219 64.640625 65.902344 C 64.054688 65.105469 64.640625 65.863281 64.347656 65.234375 L 63.257812 63.386719 C 62.628906 64.3125 62.25 64.183594 61.414062 65.066406 C 60.65625 65.902344 60.363281 66.074219 58.894531 65.777344 C 58.769531 62.796875 61.371094 58.304688 63.425781 56.082031 C 64.222656 55.246094 66.402344 54.992188 67.703125 54.992188 C 68.921875 54.992188 70.808594 56.585938 71.4375 57.132812 C 72.109375 57.675781 72.445312 58.054688 73.03125 58.515625 L 73.828125 59.1875 C 74.457031 59.859375 73.617188 59.648438 74.792969 59.859375 C 74.835938 59.816406 74.875 59.691406 74.875 59.734375 C 75.003906 60.195312 75.003906 59.4375 75.003906 59.359375 C 75.546875 57.722656 75.671875 56.039062 76.429688 54.445312 C 77.058594 53.230469 80.121094 50.667969 80.121094 53.5625 C 80.121094 54.65625 79.363281 55.410156 78.398438 55.664062 C 78.398438 57.171875 78.316406 58.9375 78.398438 60.40625 C 78.523438 63.511719 81.796875 61.410156 80.875 64.644531 C 80.664062 65.445312 80.160156 65.609375 79.574219 66.027344 C 80.246094 69.472656 78.609375 68.550781 77.097656 69.054688 L 76.597656 69.261719 L 76.429688 69.34375 L 76.132812 69.511719 L 75.964844 69.597656 C 75.964844 69.597656 75.882812 69.636719 75.839844 69.683594 C 76.132812 70.3125 77.140625 70.816406 77.730469 71.402344 L 80.664062 71.359375 C 81.589844 70.394531 82.175781 69.976562 82.804688 68.421875 C 83.433594 66.867188 83.347656 66.074219 84.523438 64.8125 C 86.871094 64.8125 85.363281 65.445312 86.789062 65.902344 C 87.5 65.902344 88.800781 65.988281 88.339844 64.941406 C 88.171875 64.519531 86.664062 64.140625 86.664062 63.09375 C 86.664062 58.644531 87.542969 59.691406 88.339844 58.304688 C 89.136719 56.921875 88.257812 57.257812 90.6875 57.257812 C 91.695312 57.257812 92.324219 60.363281 92.324219 61.371094 C 92.324219 63.257812 91.695312 62.253906 92.746094 63.933594 C 93.417969 65.019531 93.207031 65.777344 93.625 66.785156 C 94.546875 66.492188 94.96875 65.191406 95.21875 64.226562 C 95.386719 64.390625 95.472656 64.433594 95.511719 64.433594 C 95.511719 64.476562 95.511719 64.5625 95.640625 64.769531 C 95.722656 64.980469 95.765625 65.273438 95.847656 65.484375 C 96.601562 65.398438 96.394531 65.234375 96.980469 65.523438 C 96.980469 66.867188 96.101562 68.675781 96.6875 70.015625 C 97.484375 70.265625 97.652344 70.101562 98.324219 69.765625 C 98.492188 68.882812 98.449219 68.042969 98.828125 67.289062 C 99.246094 66.367188 99.792969 66.238281 100.210938 65.523438 C 100.628906 63.804688 98.660156 60.53125 105.539062 63.34375 C 105.578125 64.519531 105.285156 65.734375 105.285156 66.742188 C 105.285156 69.808594 106.335938 69.933594 103.945312 72.199219 C 103.1875 72.871094 103.355469 73.292969 102.308594 74.339844 C 102.433594 75.261719 102.601562 75.011719 102.558594 75.722656 C 102.476562 76.480469 102.222656 76.3125 102.097656 77.234375 C 103.316406 78.789062 105.832031 80.089844 105.496094 82.523438 C 103.984375 83.320312 103.691406 82.105469 101.636719 81.894531 C 101.21875 83.574219 101.382812 83.15625 99.457031 83.40625 C 98.238281 83.574219 97.066406 82.941406 96.898438 81.980469 C 96.601562 80.550781 97.945312 80.464844 97.945312 79.207031 C 97.945312 78.242188 97.820312 77.695312 97.273438 77.277344 C 96.058594 78.453125 98.238281 79.207031 93.875 82.148438 C 90.101562 84.707031 92.660156 85.671875 90.058594 86.636719 C 87.082031 87.769531 88.84375 87.351562 86.535156 91.464844 C 85.363281 93.605469 84.355469 94.902344 85.78125 97.800781 C 87.207031 98.597656 86.957031 97.296875 87.460938 99.269531 C 87.964844 101.453125 88.382812 101.957031 90.480469 102.628906 " fill-opacity="1" fill-rule="evenodd"/></g><g transform="matrix(1, 0, 0, 1, 23, 268)"><g clip-path="url(#243747cc10)"><g fill="#003c25" fill-opacity="1"><g transform="translate(1.757639, 63.904724)"><g><path d="M 4.40625 -60.59375 L 26.078125 -60.59375 C 31.898438 -60.59375 36.644531 -59.035156 40.3125 -55.921875 C 43.988281 -52.816406 45.828125 -48.378906 45.828125 -42.609375 C 45.828125 -38.148438 44.710938 -34.414062 42.484375 -31.40625 C 40.265625 -28.394531 37.242188 -26.273438 33.421875 -25.046875 L 54.28125 0 L 36.734375 0 L 18.21875 -23.953125 L 18.21875 0 L 4.40625 0 Z M 18.21875 -33.71875 L 19.828125 -33.71875 C 21.097656 -33.71875 22.175781 -33.738281 23.0625 -33.78125 C 23.945312 -33.832031 24.953125 -34.003906 26.078125 -34.296875 C 27.203125 -34.597656 28.109375 -35.015625 28.796875 -35.546875 C 29.484375 -36.085938 30.070312 -36.867188 30.5625 -37.890625 C 31.050781 -38.921875 31.296875 -40.171875 31.296875 -41.640625 C 31.296875 -43.109375 31.050781 -44.359375 30.5625 -45.390625 C 30.070312 -46.421875 29.484375 -47.203125 28.796875 -47.734375 C 28.109375 -48.273438 27.203125 -48.691406 26.078125 -48.984375 C 24.953125 -49.285156 23.945312 -49.457031 23.0625 -49.5 C 22.175781 -49.550781 21.097656 -49.578125 19.828125 -49.578125 L 18.21875 -49.578125 Z M 18.21875 -33.71875 "/></g></g></g><g fill="#003c25" fill-opacity="1"><g transform="translate(54.345991, 63.904724)"><g><path d="M 5.65625 -58.6875 C 7.175781 -60.207031 8.988281 -60.96875 11.09375 -60.96875 C 13.195312 -60.96875 15.003906 -60.207031 16.515625 -58.6875 C 18.035156 -57.164062 18.796875 -55.351562 18.796875 -53.25 C 18.796875 -51.144531 18.035156 -49.332031 16.515625 -47.8125 C 15.003906 -46.300781 13.195312 -45.546875 11.09375 -45.546875 C 8.988281 -45.546875 7.175781 -46.300781 5.65625 -47.8125 C 4.132812 -49.332031 3.375 -51.144531 3.375 -53.25 C 3.375 -55.351562 4.132812 -57.164062 5.65625 -58.6875 Z M 4.40625 -37.6875 L 4.40625 0 L 17.40625 0 L 17.40625 -37.6875 Z M 4.40625 -37.6875 "/></g></g></g><g fill="#003c25" fill-opacity="1"><g transform="translate(76.527114, 63.904724)"><g><path d="M 7.96875 -4.46875 C 3.78125 -8.195312 1.6875 -12.972656 1.6875 -18.796875 C 1.6875 -24.628906 3.863281 -29.414062 8.21875 -33.15625 C 12.582031 -36.90625 17.972656 -38.78125 24.390625 -38.78125 C 30.703125 -38.78125 36.023438 -36.894531 40.359375 -33.125 C 44.691406 -29.351562 46.859375 -24.578125 46.859375 -18.796875 C 46.859375 -13.023438 44.738281 -8.265625 40.5 -4.515625 C 36.269531 -0.765625 30.898438 1.109375 24.390625 1.109375 C 17.628906 1.109375 12.15625 -0.75 7.96875 -4.46875 Z M 18.03125 -25.1875 C 16.34375 -23.53125 15.5 -21.398438 15.5 -18.796875 C 15.5 -16.203125 16.304688 -14.082031 17.921875 -12.4375 C 19.535156 -10.800781 21.664062 -9.984375 24.3125 -9.984375 C 26.851562 -9.984375 28.941406 -10.816406 30.578125 -12.484375 C 32.222656 -14.148438 33.046875 -16.253906 33.046875 -18.796875 C 33.046875 -21.398438 32.203125 -23.53125 30.515625 -25.1875 C 28.828125 -26.851562 26.757812 -27.6875 24.3125 -27.6875 C 21.8125 -27.6875 19.71875 -26.851562 18.03125 -25.1875 Z M 18.03125 -25.1875 "/></g></g></g></g></g><g transform="matrix(1, 0, 0, 1, 148, 268)"><g clip-path="url(#5ff39b18dc)"><g fill="#5eb23f" fill-opacity="1"><g transform="translate(0.111943, 64.548192)"><g><path d="M 18.1875 -37.5625 L 18.1875 0 L 4.40625 0 L 4.40625 -60.515625 L 18.1875 -60.515625 L 42.25 -22.96875 L 42.40625 -22.96875 L 42.40625 -60.515625 L 56.1875 -60.515625 L 56.1875 0 L 42.40625 0 L 18.34375 -37.5625 Z M 18.1875 -37.5625 "/></g></g></g><g fill="#5eb23f" fill-opacity="1"><g transform="translate(60.702994, 64.548192)"><g><path d="M 5.640625 -58.609375 C 7.160156 -60.128906 8.972656 -60.890625 11.078125 -60.890625 C 13.179688 -60.890625 14.988281 -60.128906 16.5 -58.609375 C 18.019531 -57.097656 18.78125 -55.289062 18.78125 -53.1875 C 18.78125 -51.082031 18.019531 -49.269531 16.5 -47.75 C 14.988281 -46.238281 13.179688 -45.484375 11.078125 -45.484375 C 8.972656 -45.484375 7.160156 -46.238281 5.640625 -47.75 C 4.128906 -49.269531 3.375 -51.082031 3.375 -53.1875 C 3.375 -55.289062 4.128906 -57.097656 5.640625 -58.609375 Z M 4.40625 -37.640625 L 4.40625 0 L 17.390625 0 L 17.390625 -37.640625 Z M 4.40625 -37.640625 "/></g></g></g><g fill="#5eb23f" fill-opacity="1"><g transform="translate(82.856131, 64.548192)"><g><path d="M 32.9375 -37.640625 L 47.90625 -37.640625 L 18.34375 19.078125 L 3.375 19.078125 L 16.359375 -5.875 L -1.46875 -37.640625 L 13.5 -37.640625 L 23.984375 -18.34375 Z M 32.9375 -37.640625 "/></g></g></g><g fill="#5eb23f" fill-opacity="1"><g transform="translate(129.289708, 64.548192)"><g><path d="M 7.953125 -4.46875 C 3.773438 -8.1875 1.6875 -12.957031 1.6875 -18.78125 C 1.6875 -24.601562 3.863281 -29.382812 8.21875 -33.125 C 12.570312 -36.863281 17.953125 -38.734375 24.359375 -38.734375 C 30.660156 -38.734375 35.972656 -36.847656 40.296875 -33.078125 C 44.628906 -29.316406 46.796875 -24.550781 46.796875 -18.78125 C 46.796875 -13.007812 44.679688 -8.253906 40.453125 -4.515625 C 36.222656 -0.773438 30.859375 1.09375 24.359375 1.09375 C 17.609375 1.09375 12.140625 -0.757812 7.953125 -4.46875 Z M 18.015625 -25.15625 C 16.328125 -23.5 15.484375 -21.375 15.484375 -18.78125 C 15.484375 -16.1875 16.289062 -14.070312 17.90625 -12.4375 C 19.519531 -10.800781 21.644531 -9.984375 24.28125 -9.984375 C 26.820312 -9.984375 28.910156 -10.8125 30.546875 -12.46875 C 32.191406 -14.132812 33.015625 -16.238281 33.015625 -18.78125 C 33.015625 -21.375 32.171875 -23.5 30.484375 -25.15625 C 28.796875 -26.820312 26.726562 -27.65625 24.28125 -27.65625 C 21.789062 -27.65625 19.703125 -26.820312 18.015625 -25.15625 Z M 18.015625 -25.15625 "/></g></g></g></g></g><g transform="matrix(1, 0, 0, 1, 263, 335)"><g clip-path="url(#01180ff5e0)"><g fill="#003c25" fill-opacity="1"><g transform="translate(0.200241, 34.996922)"><g><path d="M 20.5625 -31.875 L 20.5625 -25.5 L 9.578125 -25.5 L 9.578125 -19.171875 L 20.09375 -19.171875 L 20.09375 -12.796875 L 9.578125 -12.796875 L 9.578125 -6.375 L 20.5625 -6.375 L 20.5625 0 L 2.3125 0 L 2.3125 -31.875 Z M 20.5625 -31.875 "/></g></g></g><g fill="#003c25" fill-opacity="1"><g transform="translate(22.60789, 34.996922)"><g><path d="M 25.265625 0 L 17 0 L 12.640625 -5.609375 L 8.265625 0 L 0 0 L 8.46875 -10.359375 L 1.203125 -19.828125 L 9.203125 -19.828125 L 12.640625 -15.21875 L 16.078125 -19.828125 L 24.078125 -19.828125 L 16.8125 -10.359375 Z M 25.265625 0 "/></g></g></g><g fill="#003c25" fill-opacity="1"><g transform="translate(47.874447, 34.996922)"><g><path d="M 2.96875 -30.875 C 3.769531 -31.675781 4.722656 -32.078125 5.828125 -32.078125 C 6.941406 -32.078125 7.894531 -31.675781 8.6875 -30.875 C 9.488281 -30.070312 9.890625 -29.117188 9.890625 -28.015625 C 9.890625 -26.910156 9.488281 -25.957031 8.6875 -25.15625 C 7.894531 -24.351562 6.941406 -23.953125 5.828125 -23.953125 C 4.722656 -23.953125 3.769531 -24.351562 2.96875 -25.15625 C 2.175781 -25.957031 1.78125 -26.910156 1.78125 -28.015625 C 1.78125 -29.117188 2.175781 -30.070312 2.96875 -30.875 Z M 2.3125 -19.828125 L 2.3125 0 L 9.15625 0 L 9.15625 -19.828125 Z M 2.3125 -19.828125 "/></g></g></g><g fill="#003c25" fill-opacity="1"><g transform="translate(59.541886, 34.996922)"><g><path d="M 2.3125 0 L 2.3125 -19.828125 L 9.15625 -19.828125 L 9.15625 -17.734375 L 9.234375 -17.734375 C 11.015625 -19.515625 12.910156 -20.40625 14.921875 -20.40625 C 16.359375 -20.40625 17.707031 -20.109375 18.96875 -19.515625 C 20.226562 -18.921875 21.179688 -18.003906 21.828125 -16.765625 C 23.835938 -19.191406 26.03125 -20.40625 28.40625 -20.40625 C 30.507812 -20.40625 32.320312 -19.8125 33.84375 -18.625 C 35.363281 -17.4375 36.125 -15.582031 36.125 -13.0625 L 36.125 0 L 29.296875 0 L 29.296875 -11.203125 C 29.296875 -12.265625 29.003906 -13.148438 28.421875 -13.859375 C 27.835938 -14.566406 26.96875 -14.921875 25.8125 -14.921875 C 24.8125 -14.921875 24.046875 -14.613281 23.515625 -14 C 22.984375 -13.394531 22.691406 -12.671875 22.640625 -11.828125 L 22.640625 0 L 15.796875 0 L 15.796875 -11.203125 C 15.796875 -12.265625 15.503906 -13.148438 14.921875 -13.859375 C 14.347656 -14.566406 13.484375 -14.921875 12.328125 -14.921875 C 11.265625 -14.921875 10.46875 -14.585938 9.9375 -13.921875 C 9.414062 -13.265625 9.15625 -12.488281 9.15625 -11.59375 L 9.15625 0 Z M 2.3125 0 "/></g></g></g></g></g></svg>