<?xml version="1.0" encoding="UTF-8" standalone="no"?><svg xmlns="http://www.w3.org/2000/svg" xmlns:xlink="http://www.w3.org/1999/xlink" width="500" zoomAndPan="magnify" viewBox="0 0 375 374.999991" height="500" preserveAspectRatio="xMidYMid meet" version="1.0"><defs><filter x="0%" y="0%" width="100%" height="100%" id="17a02ccbc3"><feColorMatrix values="0 0 0 0 1 0 0 0 0 1 0 0 0 0 1 0 0 0 1 0" color-interpolation-filters="sRGB"/></filter><clipPath id="9494a9c0e1"><path d="M 56 29 L 268 29 L 268 369.929688 L 56 369.929688 Z M 56 29 " clip-rule="nonzero"/></clipPath><mask id="5da13dc08b"><g filter="url(#17a02ccbc3)"><rect x="-37.5" width="450" fill="#000000" y="-37.499999" height="449.999989" fill-opacity="0.15"/></g></mask><clipPath id="59418134eb"><path d="M 0.5 182 L 170 182 L 170 371 L 0.5 371 Z M 0.5 182 " clip-rule="nonzero"/></clipPath><clipPath id="7b53722a92"><path d="M 139 6 L 308.75 6 L 308.75 195 L 139 195 Z M 139 6 " clip-rule="nonzero"/></clipPath><clipPath id="4d9342d0dc"><path d="M 136 185 L 308.75 185 L 308.75 372 L 136 372 Z M 136 185 " clip-rule="nonzero"/></clipPath><clipPath id="a935910186"><path d="M 0.5 5 L 173 5 L 173 192 L 0.5 192 Z M 0.5 5 " clip-rule="nonzero"/></clipPath><clipPath id="e7291cf5a5"><path d="M 8 183 L 157 183 L 157 375 L 8 375 Z M 8 183 " clip-rule="nonzero"/></clipPath><clipPath id="8b65fa6e52"><path d="M 152 0 L 301 0 L 301 194 L 152 194 Z M 152 0 " clip-rule="nonzero"/></clipPath><clipPath id="87757e5e7b"><path d="M 149 185 L 299 185 L 299 375 L 149 375 Z M 149 185 " clip-rule="nonzero"/></clipPath><clipPath id="f4892ef865"><path d="M 10 0 L 160 0 L 160 192 L 10 192 Z M 10 0 " clip-rule="nonzero"/></clipPath><clipPath id="8d4e52dbea"><rect x="0" width="309" y="0" height="375"/></clipPath></defs><g clip-path="url(#9494a9c0e1)"><path fill="#a7e067" d="M 218.148438 369.78125 L 174.242188 369.78125 C 162.6875 369.78125 151.472656 365.769531 142.625 358.511719 C 132.261719 350.410156 125.746094 336.984375 125.746094 323.054688 L 126.144531 209.113281 C 113.289062 206.964844 104.019531 201.917969 96.859375 193.984375 L 69.261719 164.554688 C 60.195312 154.671875 55.828125 141.8125 57.03125 128.988281 C 58.410156 115.640625 65.363281 103.726562 76.128906 95.980469 L 153.382812 38.707031 C 166.632812 28.855469 185.726562 26.371094 201.546875 32.546875 L 238.621094 48.378906 C 256.0625 55.78125 267.378906 72.527344 267.378906 91.015625 L 266.597656 323.152344 C 266.402344 348.933594 244.664062 369.78125 218.148438 369.78125 Z M 189.128906 306.40625 L 203.34375 306.40625 L 204.027344 102.472656 L 184.804688 94.269531 L 128.992188 135.652344 L 135.070312 142.140625 L 189.835938 101.421875 Z M 189.128906 306.40625 " fill-opacity="1" fill-rule="nonzero"/></g><path fill="#ffffff" d="M 218.148438 360.726562 L 174.242188 360.726562 C 164.773438 360.726562 155.585938 357.457031 148.359375 351.515625 C 140.015625 345.007812 134.792969 334.234375 134.792969 323.050781 L 135.21875 200.894531 C 134.609375 200.917969 134.003906 200.9375 133.398438 200.9375 C 119.816406 199.871094 110.425781 195.515625 103.570312 187.914062 L 75.855469 158.367188 C 68.59375 150.433594 65.070312 140.109375 66.035156 129.847656 C 67.144531 119.152344 72.746094 109.570312 81.410156 103.34375 L 158.777344 45.976562 C 169.5625 37.941406 185.253906 35.882812 198.265625 40.976562 L 235.078125 56.699219 C 249.183594 62.6875 258.335938 76.167969 258.335938 91.011719 L 257.558594 323.125 C 257.398438 343.894531 239.71875 360.726562 218.148438 360.726562 Z M 180.039062 315.457031 L 212.363281 315.457031 L 213.085938 96.511719 L 183.589844 83.902344 L 115.433594 134.4375 L 133.988281 154.226562 L 180.726562 119.46875 Z M 180.039062 315.457031 " fill-opacity="1" fill-rule="nonzero"/><path fill="#459f2b" d="M 226.1875 77.5 L 190.078125 62.070312 C 184.101562 59.746094 177.023438 60.589844 172.234375 64.152344 L 94.609375 121.722656 C 91.191406 124.175781 88.976562 127.894531 88.554688 131.957031 C 88.1875 135.886719 89.566406 139.847656 92.347656 142.878906 L 120.371094 172.761719 C 123.164062 175.859375 127.199219 177.785156 133.398438 178.3125 C 137.210938 178.3125 140.980469 177.074219 144.152344 174.859375 L 157.960938 164.597656 L 157.402344 323.054688 C 157.402344 327.332031 159.433594 331.472656 162.707031 334.03125 C 165.855469 336.617188 169.957031 338.097656 174.238281 338.097656 L 218.144531 338.097656 C 227.324219 338.097656 234.875 331.335938 234.941406 323.058594 L 235.71875 91.019531 C 235.722656 85.257812 231.964844 79.957031 226.1875 77.5 Z M 226.1875 77.5 " fill-opacity="1" fill-rule="nonzero"/><path fill="#6bc94c" d="M 132.394531 124.097656 C 130.175781 124.097656 128.003906 123.011719 126.726562 120.980469 C 124.722656 117.855469 125.644531 113.695312 128.78125 111.695312 L 177.945312 80.347656 C 181.070312 78.371094 185.238281 79.269531 187.222656 82.398438 C 189.214844 85.523438 188.304688 89.691406 185.167969 91.691406 L 136.007812 123.039062 C 134.886719 123.753906 133.632812 124.097656 132.394531 124.097656 Z M 132.394531 124.097656 " fill-opacity="1" fill-rule="nonzero"/><path fill="#6bc94c" d="M 203.527344 325.242188 L 192.265625 325.242188 C 188.800781 325.242188 185.992188 322.550781 185.992188 319.253906 C 185.992188 315.855469 188.800781 313.183594 192.265625 313.183594 L 203.527344 313.183594 C 206.53125 313.183594 211.042969 313.183594 211.222656 299.207031 C 211.292969 293.210938 211.316406 291.414062 211.304688 290.992188 L 211.394531 290.992188 C 211.183594 288.867188 211.183594 286.039062 211.183594 282.34375 C 211.183594 278.992188 214.003906 276.296875 217.472656 276.296875 C 220.957031 276.296875 223.75 278.992188 223.75 282.34375 C 223.75 288.015625 223.769531 289.832031 223.804688 290.394531 L 223.671875 290.394531 C 223.710938 290.8125 223.738281 291.234375 223.769531 291.707031 L 223.777344 291.707031 L 223.769531 291.820312 C 223.855469 293.738281 223.832031 296.273438 223.792969 299.355469 C 223.523438 320.757812 212.636719 325.242188 203.527344 325.242188 Z M 203.527344 325.242188 " fill-opacity="1" fill-rule="nonzero"/><path fill="#ffffff" d="M 250.132812 83.292969 C 245.070312 83.292969 239.925781 82.65625 234.878906 81.417969 C 232.042969 80.71875 229.878906 78.425781 229.367188 75.550781 C 223.15625 40.933594 246.757812 19.3125 247.761719 18.402344 C 277.691406 -6.644531 304.886719 3.539062 306.3125 4.066406 C 308.621094 4.855469 310.382812 6.726562 311.03125 9.078125 C 311.359375 10.300781 318.964844 39.28125 293.246094 66.476562 C 292.363281 67.34375 275.847656 83.292969 250.132812 83.292969 Z M 243.265625 68.019531 C 245.554688 68.347656 247.851562 68.519531 250.132812 68.519531 C 269.871094 68.519531 282.582031 56.25 282.714844 56.132812 C 297.429688 40.566406 298.109375 24.523438 297.441406 17.164062 C 290.160156 16.070312 274.171875 15.605469 257.425781 29.578125 C 256.921875 30.039062 241.367188 44.5625 243.265625 68.019531 Z M 243.265625 68.019531 " fill-opacity="1" fill-rule="nonzero"/><path fill="#79d140" d="M 303.917969 11.042969 C 303.917969 11.042969 278.542969 2.308594 252.6875 23.90625 C 252.6875 23.90625 231.082031 43.285156 236.628906 74.246094 C 267.179688 81.738281 287.882812 61.394531 287.882812 61.394531 C 311.046875 36.925781 303.917969 11.042969 303.917969 11.042969 Z M 303.917969 11.042969 " fill-opacity="1" fill-rule="evenodd"/><path fill="#459f2b" d="M 295.738281 18.707031 C 295.738281 18.707031 285.875 22.585938 266.390625 40.433594 C 266.390625 40.433594 249.699219 55.960938 242.882812 68.375 C 255.714844 62.367188 272.257812 46.671875 272.257812 46.671875 C 291.269531 28.347656 295.738281 18.707031 295.738281 18.707031 Z M 295.738281 18.707031 " fill-opacity="1" fill-rule="evenodd"/><path fill="#ffffff" d="M 289.410156 137.878906 C 278.523438 137.878906 267.484375 134.289062 257.515625 127.523438 C 256.460938 126.757812 235.683594 111.230469 237.097656 83.632812 C 237.210938 81.203125 238.820312 79.113281 241.125 78.359375 C 246.207031 76.699219 251.4375 75.867188 256.714844 75.867188 C 275.121094 75.867188 288.066406 86.039062 288.621094 86.46875 C 311.855469 106.367188 308.78125 129.605469 308.632812 130.582031 C 308.347656 132.589844 307.042969 134.316406 305.167969 135.121094 C 304.519531 135.402344 298.574219 137.878906 289.410156 137.878906 Z M 248.8125 88.4375 C 249.855469 107.167969 264.121094 117.816406 264.269531 117.933594 C 272.246094 123.34375 280.746094 126.136719 289.410156 126.136719 C 292.5625 126.136719 295.1875 125.746094 297.097656 125.332031 C 296.804688 119.359375 294.457031 106.921875 281.144531 95.519531 C 281.128906 95.519531 270.832031 87.605469 256.714844 87.605469 C 254.066406 87.605469 251.421875 87.886719 248.8125 88.4375 Z M 248.8125 88.4375 " fill-opacity="1" fill-rule="nonzero"/><path fill="#79d140" d="M 302.832031 129.738281 C 302.832031 129.738281 305.851562 108.949219 284.957031 91.0625 C 284.957031 91.0625 266.429688 76.261719 242.949219 83.9375 C 241.683594 108.683594 260.8125 122.667969 260.8125 122.667969 C 283.550781 138.117188 302.832031 129.738281 302.832031 129.738281 Z M 302.832031 129.738281 " fill-opacity="1" fill-rule="evenodd"/><path fill="#459f2b" d="M 295.566406 124.164062 C 295.566406 124.164062 291.03125 116.882812 274.023438 103.570312 C 274.023438 103.570312 259.296875 92.199219 248.5 88.210938 C 255.171875 97.605469 270.015625 108.847656 270.015625 108.847656 C 287.3125 121.722656 295.566406 124.164062 295.566406 124.164062 Z M 295.566406 124.164062 " fill-opacity="1" fill-rule="evenodd"/><g mask="url(#5da13dc08b)"><g transform="matrix(1, 0, 0, 1, 37, 0)"><g clip-path="url(#8d4e52dbea)"><g clip-path="url(#59418134eb)"><path fill="#000000" d="M 5.089844 185.109375 L 6.96875 327.335938 L 6.96875 327.277344 C 7.574219 342.730469 9.515625 351.710938 12.789062 354.230469 C 13.140625 354.5 13.402344 354.863281 13.546875 355.28125 C 16.324219 363.382812 67.660156 366.972656 167.558594 366.058594 C 168.800781 366.046875 169.816406 367.042969 169.828125 368.285156 C 169.839844 369.523438 168.84375 370.539062 167.601562 370.550781 C 65.539062 371.488281 12.769531 366.882812 9.292969 356.738281 L 10.050781 357.792969 C 5.660156 354.421875 3.136719 344.308594 2.472656 327.453125 L 2.472656 327.394531 L 0.59375 185.167969 C 0.574219 183.925781 1.570312 182.90625 2.8125 182.890625 C 4.050781 182.875 5.074219 183.867188 5.089844 185.109375 Z M 5.089844 185.109375 " fill-opacity="1" fill-rule="nonzero"/></g><g clip-path="url(#7b53722a92)"><path fill="#000000" d="M 304.179688 191.894531 L 302.300781 49.664062 L 302.300781 49.722656 C 301.695312 34.273438 299.753906 25.289062 296.480469 22.773438 C 296.128906 22.503906 295.867188 22.136719 295.722656 21.71875 C 292.945312 13.621094 241.609375 10.027344 141.710938 10.945312 C 140.46875 10.957031 139.453125 9.960938 139.441406 8.71875 C 139.429688 7.476562 140.425781 6.460938 141.667969 6.449219 C 243.730469 5.511719 296.5 10.117188 299.976562 20.261719 L 299.21875 19.207031 C 303.609375 22.582031 306.132812 32.691406 306.796875 49.546875 L 306.796875 49.605469 L 308.675781 191.832031 C 308.695312 193.074219 307.699219 194.09375 306.457031 194.109375 C 305.21875 194.125 304.195312 193.132812 304.179688 191.894531 Z M 304.179688 191.894531 " fill-opacity="1" fill-rule="nonzero"/></g><g clip-path="url(#4d9342d0dc)"><path fill="#000000" d="M 304.214844 187.265625 L 300.28125 329.453125 L 300.285156 329.394531 C 299.453125 344.835938 297.382812 353.789062 294.070312 356.257812 C 293.71875 356.523438 293.449219 356.882812 293.300781 357.300781 C 290.40625 365.359375 239.023438 368.210938 139.148438 365.851562 C 137.90625 365.824219 136.875 366.804688 136.847656 368.046875 C 136.816406 369.285156 137.800781 370.316406 139.042969 370.34375 C 241.078125 372.753906 293.90625 368.910156 297.53125 358.820312 L 296.761719 359.859375 C 301.199219 356.554688 303.867188 346.476562 304.773438 329.636719 L 304.777344 329.578125 L 308.710938 187.390625 C 308.742188 186.148438 307.765625 185.117188 306.523438 185.082031 C 305.28125 185.046875 304.25 186.027344 304.214844 187.265625 Z M 304.214844 187.265625 " fill-opacity="1" fill-rule="nonzero"/></g><g clip-path="url(#a935910186)"><path fill="#000000" d="M 5.054688 189.734375 L 8.988281 47.550781 L 8.984375 47.609375 C 9.816406 32.167969 11.886719 23.210938 15.199219 20.742188 C 15.550781 20.480469 15.820312 20.117188 15.96875 19.703125 C 18.863281 11.644531 70.246094 8.792969 170.121094 11.148438 C 171.363281 11.179688 172.394531 10.195312 172.421875 8.957031 C 172.453125 7.714844 171.46875 6.683594 170.226562 6.65625 C 68.191406 4.246094 15.363281 8.089844 11.738281 18.183594 L 12.507812 17.140625 C 8.070312 20.449219 5.398438 30.523438 4.496094 47.367188 L 4.492188 47.425781 L 0.558594 189.609375 C 0.527344 190.851562 1.503906 191.886719 2.746094 191.917969 C 3.988281 191.953125 5.019531 190.976562 5.054688 189.734375 Z M 5.054688 189.734375 " fill-opacity="1" fill-rule="nonzero"/></g><g clip-path="url(#e7291cf5a5)"><path fill="#000000" d="M 17.355469 185.988281 C 15.1875 223.339844 13.863281 275.804688 13.378906 343.378906 L 13.363281 343.089844 L 16.109375 365.332031 L 16.109375 365.339844 C 16.242188 366.457031 16.566406 367.425781 17.078125 368.25 C 17.152344 368.367188 17.214844 368.488281 17.265625 368.617188 C 17.257812 368.597656 17.25 368.582031 17.242188 368.570312 C 17.9375 369.632812 21.28125 370.546875 27.277344 371.320312 C 27.359375 371.328125 27.445312 371.34375 27.527344 371.363281 C 30.570312 372.109375 47.933594 373.601562 79.609375 375.839844 C 79.65625 375.84375 79.703125 375.847656 79.746094 375.851562 C 91.101562 377.359375 115.957031 377.535156 154.316406 376.378906 C 155.558594 376.34375 156.59375 377.320312 156.632812 378.558594 C 156.667969 379.800781 155.691406 380.835938 154.449219 380.875 C 115.851562 382.035156 90.75 381.847656 79.15625 380.308594 L 79.292969 380.324219 C 47.359375 378.066406 29.746094 376.539062 26.453125 375.730469 L 26.703125 375.777344 C 19.339844 374.828125 14.929688 373.25 13.480469 371.035156 C 13.316406 370.785156 13.183594 370.527344 13.078125 370.261719 L 13.265625 370.628906 C 12.394531 369.238281 11.855469 367.648438 11.644531 365.871094 L 11.644531 365.882812 L 8.902344 343.640625 C 8.886719 343.542969 8.882812 343.445312 8.882812 343.347656 C 9.367188 275.695312 10.695312 223.15625 12.867188 185.726562 C 12.9375 184.488281 14 183.539062 15.242188 183.613281 C 16.480469 183.683594 17.425781 184.746094 17.355469 185.988281 Z M 17.355469 185.988281 " fill-opacity="1" fill-rule="nonzero"/></g><g clip-path="url(#8b65fa6e52)"><path fill="#000000" d="M 291.914062 191.015625 C 294.082031 153.660156 295.40625 101.195312 295.890625 33.621094 L 295.90625 33.910156 L 293.160156 11.671875 L 293.160156 11.660156 C 293.027344 10.546875 292.703125 9.574219 292.191406 8.75 C 292.117188 8.636719 292.054688 8.511719 292.003906 8.382812 C 292.011719 8.40625 292.019531 8.421875 292.027344 8.429688 C 291.332031 7.371094 287.988281 6.453125 281.992188 5.683594 C 281.910156 5.671875 281.824219 5.65625 281.742188 5.636719 C 278.699219 4.890625 261.335938 3.398438 229.660156 1.164062 C 229.613281 1.160156 229.566406 1.15625 229.523438 1.148438 C 218.167969 -0.359375 193.3125 -0.535156 154.953125 0.621094 C 153.710938 0.660156 152.675781 -0.316406 152.636719 -1.558594 C 152.601562 -2.796875 153.578125 -3.835938 154.816406 -3.871094 C 193.417969 -5.035156 218.519531 -4.84375 230.113281 -3.308594 L 229.976562 -3.320312 C 261.910156 -1.066406 279.523438 0.464844 282.816406 1.269531 L 282.566406 1.226562 C 289.929688 2.171875 294.339844 3.753906 295.789062 5.96875 C 295.953125 6.214844 296.085938 6.472656 296.191406 6.738281 L 296.003906 6.371094 C 296.875 7.765625 297.414062 9.351562 297.625 11.132812 L 297.625 11.121094 L 300.367188 33.363281 C 300.382812 33.457031 300.386719 33.554688 300.386719 33.652344 C 299.902344 101.304688 298.574219 153.84375 296.402344 191.277344 C 296.332031 192.515625 295.269531 193.460938 294.027344 193.390625 C 292.789062 193.316406 291.84375 192.253906 291.914062 191.015625 Z M 291.914062 191.015625 " fill-opacity="1" fill-rule="nonzero"/></g><g clip-path="url(#87757e5e7b)"><path fill="#000000" d="M 291.9375 187.96875 C 293.5625 225.347656 294.132812 277.828125 293.636719 345.402344 L 293.660156 345.109375 L 290.59375 367.3125 L 290.59375 367.320312 C 290.445312 368.433594 290.105469 369.398438 289.582031 370.214844 C 289.503906 370.332031 289.441406 370.453125 289.390625 370.582031 C 289.398438 370.558594 289.40625 370.542969 289.414062 370.535156 C 288.703125 371.585938 285.34375 372.453125 279.339844 373.136719 C 279.253906 373.144531 279.171875 373.160156 279.089844 373.179688 C 276.035156 373.882812 258.652344 375.121094 226.945312 376.902344 C 226.902344 376.90625 226.855469 376.910156 226.808594 376.914062 C 215.433594 378.257812 190.578125 378.074219 152.242188 376.367188 C 151 376.308594 149.949219 377.269531 149.894531 378.511719 C 149.839844 379.75 150.800781 380.800781 152.039062 380.855469 C 190.621094 382.574219 215.71875 382.75 227.335938 381.378906 L 227.199219 381.390625 C 259.160156 379.597656 276.792969 378.320312 280.097656 377.558594 L 279.847656 377.601562 C 287.226562 376.761719 291.65625 375.246094 293.140625 373.050781 C 293.304688 372.804688 293.441406 372.550781 293.550781 372.285156 L 293.359375 372.648438 C 294.25 371.269531 294.8125 369.691406 295.050781 367.914062 L 295.050781 367.925781 L 298.113281 345.726562 C 298.128906 345.628906 298.132812 345.53125 298.132812 345.433594 C 298.628906 277.785156 298.058594 225.230469 296.429688 187.769531 C 296.375 186.53125 295.324219 185.570312 294.085938 185.625 C 292.84375 185.679688 291.882812 186.726562 291.9375 187.96875 Z M 291.9375 187.96875 " fill-opacity="1" fill-rule="nonzero"/></g><g clip-path="url(#f4892ef865)"><path fill="#000000" d="M 17.332031 189.035156 C 15.707031 151.652344 15.136719 99.175781 15.632812 31.597656 L 15.609375 31.890625 L 18.675781 9.691406 L 18.675781 9.679688 C 18.824219 8.566406 19.164062 7.601562 19.6875 6.785156 C 19.765625 6.671875 19.828125 6.546875 19.878906 6.421875 C 19.871094 6.441406 19.863281 6.457031 19.855469 6.46875 C 20.566406 5.417969 23.925781 4.550781 29.929688 3.863281 C 30.015625 3.855469 30.097656 3.839844 30.179688 3.824219 C 33.234375 3.121094 50.617188 1.878906 82.324219 0.101562 C 82.367188 0.0976562 82.414062 0.09375 82.460938 0.0859375 C 93.835938 -1.253906 118.691406 -1.070312 157.027344 0.636719 C 158.269531 0.691406 159.320312 -0.269531 159.375 -1.507812 C 159.429688 -2.75 158.46875 -3.800781 157.230469 -3.855469 C 118.648438 -5.574219 93.550781 -5.746094 81.933594 -4.375 L 82.070312 -4.386719 C 50.109375 -2.59375 32.476562 -1.316406 29.171875 -0.558594 L 29.421875 -0.601562 C 22.042969 0.238281 17.613281 1.757812 16.128906 3.949219 C 15.964844 4.195312 15.828125 4.453125 15.71875 4.714844 L 15.910156 4.351562 C 15.019531 5.730469 14.457031 7.308594 14.21875 9.085938 L 14.21875 9.078125 L 11.15625 31.277344 C 11.140625 31.371094 11.136719 31.46875 11.132812 31.566406 C 10.640625 99.21875 11.210938 151.773438 12.839844 189.230469 C 12.894531 190.46875 13.945312 191.433594 15.183594 191.378906 C 16.425781 191.324219 17.386719 190.273438 17.332031 189.035156 Z M 17.332031 189.035156 " fill-opacity="1" fill-rule="nonzero"/></g></g></g></g></svg>