<?xml version="1.0" encoding="UTF-8" standalone="no"?><svg xmlns="http://www.w3.org/2000/svg" xmlns:xlink="http://www.w3.org/1999/xlink" width="500" zoomAndPan="magnify" viewBox="0 0 375 374.999991" height="500" preserveAspectRatio="xMidYMid meet" version="1.0"><defs><g/><clipPath id="2ca29f179c"><path d="M 299 168 L 310 168 L 310 179.828125 L 299 179.828125 Z M 299 168 " clip-rule="nonzero"/></clipPath><clipPath id="dffeb7e689"><path d="M 298.847656 169 L 307 169 L 307 179.828125 L 298.847656 179.828125 Z M 298.847656 169 " clip-rule="nonzero"/></clipPath><clipPath id="5985a59071"><rect x="0" width="131" y="0" height="96"/></clipPath><clipPath id="1ec1fd11eb"><rect x="0" width="187" y="0" height="96"/></clipPath><clipPath id="1ab4fa83fa"><rect x="0" width="103" y="0" height="51"/></clipPath></defs><g clip-path="url(#2ca29f179c)"><path fill="#5eb23f" d="M 304.589844 179.828125 C 309.074219 177.863281 305.792969 174.875 308.238281 171.242188 C 308.457031 172.984375 308.890625 174.871094 307.929688 176.714844 C 308.914062 175.15625 309.386719 171.886719 307.992188 170.441406 C 307.628906 170.066406 307.207031 169.734375 306.730469 169.460938 C 304.179688 168.011719 300.976562 168.785156 299.347656 171.160156 C 300.941406 168.664062 304.226562 167.828125 306.832031 169.308594 C 307.363281 169.609375 307.824219 169.984375 308.214844 170.414062 C 308.335938 170.546875 308.449219 170.6875 308.554688 170.832031 C 309.863281 172.566406 310.09375 174.984375 308.957031 176.996094 C 308.015625 178.664062 306.355469 179.664062 304.589844 179.828125 " fill-opacity="1" fill-rule="evenodd"/></g><g clip-path="url(#dffeb7e689)"><path fill="#003c25" d="M 301.589844 169.8125 C 301.570312 169.894531 301.597656 169.976562 301.632812 170.023438 C 301.667969 170.011719 301.710938 169.976562 301.734375 169.953125 C 301.734375 169.902344 301.710938 169.898438 301.691406 169.855469 C 301.660156 169.800781 301.65625 169.808594 301.589844 169.8125 Z M 301.386719 169.980469 C 301.429688 170.003906 301.472656 170.003906 301.496094 169.953125 C 301.53125 169.835938 301.402344 169.800781 301.34375 169.878906 C 301.3125 169.929688 301.34375 169.957031 301.386719 169.980469 Z M 301.335938 170.699219 C 301.347656 170.652344 301.359375 170.6875 301.351562 170.585938 C 301.289062 170.566406 301.242188 170.578125 301.199219 170.625 C 301.132812 170.699219 301.1875 170.710938 301.164062 170.773438 C 301.109375 170.78125 301.117188 170.757812 301.058594 170.78125 C 301.015625 170.890625 301.109375 170.882812 301.15625 170.921875 C 301.175781 170.9375 301.183594 170.949219 301.199219 170.964844 C 301.398438 170.933594 301.328125 170.742188 301.335938 170.699219 Z M 301.699219 170.511719 C 301.640625 170.496094 301.578125 170.457031 301.472656 170.515625 C 301.425781 170.539062 301.421875 170.667969 301.421875 170.722656 L 301.425781 170.78125 L 301.519531 170.785156 C 301.554688 170.644531 301.539062 170.726562 301.625 170.660156 C 301.65625 170.636719 301.652344 170.613281 301.671875 170.585938 C 301.703125 170.542969 301.699219 170.570312 301.699219 170.511719 Z M 301.65625 170.222656 C 301.65625 170.320312 301.652344 170.335938 301.695312 170.402344 L 302.15625 170.339844 C 302.214844 170.335938 302.339844 170.382812 302.339844 170.191406 C 302.339844 170.136719 302.289062 170.109375 302.226562 170.109375 C 302.121094 170.109375 301.996094 170.246094 301.882812 170.207031 C 301.820312 170.1875 301.882812 170.195312 301.792969 170.183594 L 301.785156 170.183594 L 301.773438 170.179688 C 301.796875 170.121094 301.820312 170.199219 301.820312 170.117188 C 301.820312 170.0625 301.757812 170.058594 301.707031 170.058594 C 301.652344 170.058594 301.605469 170.050781 301.5625 170.054688 C 301.503906 170.0625 301.519531 170.121094 301.554688 170.152344 C 301.585938 170.179688 301.636719 170.179688 301.65625 170.222656 Z M 301.136719 170.238281 C 301.117188 170.3125 301.128906 170.347656 301.226562 170.417969 C 301.25 170.433594 301.289062 170.4375 301.324219 170.429688 C 301.402344 170.410156 301.394531 170.367188 301.394531 170.351562 L 301.496094 170.425781 C 301.59375 170.398438 301.632812 170.363281 301.582031 170.273438 L 301.492188 170.265625 C 301.460938 170.207031 301.453125 170.117188 301.351562 170.179688 C 301.28125 170.226562 301.242188 170.238281 301.136719 170.238281 Z M 300.433594 170.558594 C 300.460938 170.667969 300.65625 170.710938 300.757812 170.660156 C 300.835938 170.625 300.816406 170.578125 300.890625 170.558594 C 300.949219 170.539062 300.921875 170.546875 300.964844 170.515625 C 300.988281 170.496094 301.027344 170.488281 301.046875 170.472656 C 301.042969 170.394531 301.035156 170.398438 300.984375 170.371094 C 300.992188 170.339844 300.992188 170.351562 300.984375 170.300781 C 300.851562 170.292969 300.914062 170.363281 300.863281 170.457031 L 300.746094 170.390625 C 300.695312 170.351562 300.683594 170.335938 300.621094 170.382812 C 300.5625 170.425781 300.460938 170.5 300.433594 170.558594 Z M 302.828125 176.195312 C 302.753906 176.152344 302.527344 176.117188 302.496094 176.316406 C 302.550781 176.324219 302.546875 176.308594 302.601562 176.332031 C 302.691406 176.367188 302.816406 176.328125 302.871094 176.289062 C 302.871094 176.25 302.867188 176.21875 302.828125 176.195312 Z M 302.480469 176.117188 C 302.4375 176.101562 302.414062 176.078125 302.367188 176.054688 C 302.328125 176.03125 302.28125 176.015625 302.242188 175.996094 C 301.914062 175.839844 301.9375 175.925781 301.820312 175.925781 L 301.820312 176.027344 C 301.988281 176.011719 302.019531 176.007812 302.207031 176.109375 C 302.3125 176.167969 302.269531 176.179688 302.335938 176.183594 L 302.363281 176.1875 C 302.375 176.191406 302.46875 176.28125 302.480469 176.117188 Z M 305.824219 171.726562 C 305.871094 171.714844 305.878906 171.699219 305.917969 171.753906 C 305.910156 171.78125 305.929688 171.765625 305.878906 171.78125 C 305.910156 171.953125 305.921875 171.820312 305.929688 171.925781 C 305.988281 171.941406 305.972656 171.925781 305.988281 171.992188 C 306.140625 172.011719 306.078125 172.042969 306.15625 172.042969 C 306.207031 172.042969 306.296875 172.003906 306.328125 171.980469 C 306.375 171.949219 306.425781 171.886719 306.464844 171.871094 C 306.464844 171.78125 306.449219 171.730469 306.398438 171.679688 C 306.265625 171.542969 306.292969 171.644531 306.230469 171.644531 L 305.996094 171.644531 C 305.941406 171.644531 306.007812 171.605469 305.886719 171.589844 C 305.847656 171.640625 305.832031 171.636719 305.824219 171.726562 Z M 303.800781 170.511719 C 303.820312 170.628906 303.710938 170.640625 303.792969 170.742188 C 303.871094 170.734375 303.839844 170.699219 303.933594 170.6875 C 303.945312 170.707031 303.949219 170.707031 303.957031 170.726562 C 303.96875 170.757812 303.953125 170.75 303.976562 170.773438 C 304.007812 170.804688 304.058594 170.769531 304.03125 170.859375 C 303.960938 170.851562 303.988281 170.808594 303.921875 170.808594 C 303.753906 170.808594 303.816406 171.082031 303.898438 171.082031 C 303.957031 171.082031 303.984375 171.058594 304.027344 171.042969 C 304.027344 170.996094 304.023438 170.996094 304.003906 170.964844 L 304.058594 170.964844 C 304.121094 171.15625 303.949219 171.113281 303.917969 171.207031 C 303.910156 171.226562 303.890625 171.246094 303.890625 171.273438 C 303.894531 171.742188 303.90625 171.460938 303.949219 171.640625 C 303.957031 171.679688 303.96875 171.75 303.972656 171.800781 C 304.027344 171.796875 304.046875 171.773438 304.09375 171.789062 C 304.09375 171.820312 304.058594 171.832031 304.058594 171.890625 C 304.058594 172.011719 304.074219 172.035156 304.152344 172.125 C 304.175781 172.152344 304.199219 172.167969 304.210938 172.195312 C 304.238281 172.273438 304.191406 172.269531 304.300781 172.296875 C 304.492188 172.339844 304.488281 172.5 304.636719 172.386719 C 304.640625 172.273438 304.675781 172.242188 304.679688 172.15625 C 304.683594 172.046875 304.703125 172.007812 304.769531 171.964844 C 304.769531 171.894531 304.765625 171.835938 304.78125 171.777344 C 304.808594 171.691406 304.824219 171.742188 304.847656 171.640625 C 304.960938 171.617188 305.03125 171.621094 305.117188 171.558594 C 305.222656 171.476562 305.265625 171.371094 305.304688 171.339844 C 305.304688 171.339844 305.324219 171.328125 305.328125 171.324219 C 305.382812 171.292969 305.457031 171.285156 305.53125 171.269531 C 305.8125 171.214844 305.648438 171.152344 305.816406 171.152344 C 305.835938 171.117188 305.855469 171.097656 305.875 171.066406 C 305.898438 171.027344 305.890625 170.996094 305.925781 170.96875 L 305.894531 170.867188 C 305.878906 170.796875 305.875 170.847656 305.84375 170.792969 C 305.832031 170.753906 305.859375 170.660156 305.855469 170.636719 C 305.847656 170.585938 305.828125 170.640625 305.828125 170.582031 C 305.828125 170.539062 305.84375 170.550781 305.847656 170.542969 C 305.867188 170.523438 305.871094 170.523438 305.871094 170.523438 C 305.878906 170.511719 305.867188 170.527344 305.878906 170.507812 C 305.894531 170.484375 305.882812 170.492188 305.902344 170.46875 C 306.007812 170.328125 305.910156 170.351562 305.894531 170.265625 C 305.945312 170.269531 305.933594 170.304688 305.988281 170.324219 C 306.023438 170.289062 306.035156 170.28125 306.03125 170.210938 C 305.875 170.171875 305.960938 170.1875 305.867188 170.105469 C 305.863281 170.101562 305.679688 169.976562 305.796875 169.976562 C 305.84375 169.976562 305.859375 170.007812 305.902344 169.976562 C 305.945312 169.921875 305.832031 169.871094 305.8125 169.855469 C 305.773438 169.824219 305.714844 169.792969 305.714844 169.730469 C 305.714844 169.558594 305.859375 169.507812 305.859375 169.375 C 305.347656 169.214844 305.527344 169.347656 305.429688 169.355469 L 305.433594 169.253906 C 305.285156 169.203125 305.363281 169.230469 305.246094 169.28125 C 305.222656 169.25 305.242188 169.257812 305.222656 169.222656 C 305.210938 169.191406 305.207031 169.203125 305.191406 169.179688 C 305.179688 169.160156 305.175781 169.140625 305.167969 169.128906 C 305.152344 169.109375 305.136719 169.113281 305.128906 169.09375 L 305.902344 169.328125 C 305.492188 169.167969 305.0625 169.058594 304.617188 169.003906 C 304.617188 169.007812 304.621094 169.007812 304.621094 169.007812 C 304.574219 169.109375 304.476562 169.027344 304.429688 169.027344 C 304.34375 169.027344 304.410156 169.050781 304.316406 169.0625 C 304.144531 169.085938 303.972656 169.082031 303.804688 169.070312 C 303.714844 169.0625 303.660156 169.105469 303.566406 169.089844 C 303.5 169.082031 303.445312 169.054688 303.371094 169.0625 C 303.171875 169.089844 303 169.132812 302.804688 169.164062 C 302.613281 169.199219 302.484375 169.296875 302.277344 169.296875 C 302.238281 169.339844 302.269531 169.347656 302.195312 169.355469 C 302.140625 169.359375 302.113281 169.367188 302.097656 169.414062 C 302.125 169.464844 302.140625 169.433594 302.160156 169.484375 C 302.066406 169.488281 302.113281 169.460938 302.058594 169.460938 L 301.972656 169.460938 C 301.949219 169.476562 301.808594 169.609375 301.785156 169.632812 C 301.746094 169.675781 301.761719 169.699219 301.789062 169.757812 C 301.851562 169.890625 301.882812 169.855469 301.957031 169.824219 C 301.992188 169.867188 301.984375 169.851562 301.984375 169.949219 C 301.949219 169.972656 301.90625 169.996094 301.878906 170.03125 C 301.878906 170.03125 301.886719 170.042969 301.890625 170.046875 C 301.960938 170.121094 302.210938 170.054688 302.257812 170.011719 C 302.3125 170.035156 302.308594 170.050781 302.382812 170.027344 C 302.554688 169.960938 302.457031 169.9375 302.523438 169.816406 C 302.5625 169.746094 302.570312 169.757812 302.628906 169.746094 C 302.695312 169.730469 302.730469 169.535156 302.886719 169.457031 C 302.984375 169.414062 303.015625 169.382812 303.101562 169.3125 C 303.164062 169.261719 303.15625 169.285156 303.15625 169.1875 C 303.210938 169.183594 303.257812 169.191406 303.320312 169.171875 C 303.363281 169.160156 303.425781 169.136719 303.476562 169.160156 C 303.472656 169.203125 303.480469 169.183594 303.410156 169.207031 C 303.328125 169.234375 303.269531 169.28125 303.1875 169.304688 L 303.191406 169.378906 C 303.230469 169.382812 303.253906 169.386719 303.273438 169.414062 C 303.253906 169.457031 303.246094 169.414062 303.210938 169.484375 C 303.058594 169.484375 303.046875 169.550781 302.925781 169.585938 C 302.878906 169.597656 302.847656 169.578125 302.847656 169.625 C 302.847656 169.824219 303.035156 169.691406 303.1875 169.742188 C 303.148438 169.851562 303 169.769531 302.9375 169.785156 C 302.914062 169.792969 302.898438 169.808594 302.878906 169.820312 C 302.886719 169.925781 302.910156 169.878906 302.960938 169.902344 C 302.988281 169.914062 302.996094 169.96875 303.015625 170 C 303.152344 169.980469 303.285156 169.960938 303.421875 169.960938 C 303.511719 169.960938 303.648438 170.109375 303.679688 170.175781 C 303.695312 170.21875 303.683594 170.195312 303.707031 170.222656 C 303.730469 170.257812 303.796875 170.480469 303.800781 170.511719 Z M 302.335938 171.007812 C 302.386719 171.050781 302.414062 171.128906 302.414062 171.210938 C 302.46875 171.210938 302.550781 171.214844 302.550781 171.265625 C 302.515625 171.300781 302.433594 171.269531 302.375 171.292969 C 302.335938 171.320312 302.316406 171.460938 302.4375 171.453125 C 302.546875 171.445312 302.550781 171.347656 302.625 171.351562 C 302.636719 171.542969 302.578125 171.453125 302.527344 171.609375 C 302.519531 171.636719 302.523438 171.65625 302.519531 171.691406 C 302.34375 171.699219 302.277344 171.707031 302.277344 171.855469 C 302.4375 171.90625 302.386719 171.871094 302.535156 171.832031 C 302.71875 171.976562 302.574219 171.996094 302.882812 172.136719 C 302.949219 172.167969 302.976562 172.191406 303.039062 172.152344 C 303.023438 172.023438 302.894531 172.023438 302.890625 171.957031 C 302.984375 171.964844 303.046875 172.03125 303.140625 172.054688 C 303.207031 171.863281 303.152344 171.863281 303.089844 171.789062 C 302.996094 171.675781 302.972656 171.6875 302.976562 171.535156 C 303.113281 171.558594 303.066406 171.730469 303.210938 171.726562 C 303.316406 171.726562 303.363281 171.476562 303.359375 171.46875 C 303.332031 171.40625 303.304688 171.441406 303.261719 171.40625 L 303.171875 171.324219 C 303 171.183594 303.011719 171.285156 303.007812 171.152344 C 303.039062 171.152344 303.042969 171.148438 303.058594 171.140625 C 303.058594 171.132812 303.027344 170.929688 303.015625 170.953125 C 303.011719 170.957031 303.003906 170.949219 303 170.945312 C 302.945312 170.914062 302.96875 170.925781 302.933594 170.890625 C 302.886719 170.847656 302.886719 170.890625 302.835938 170.84375 C 302.746094 170.757812 302.792969 170.722656 302.648438 170.753906 C 302.632812 170.726562 302.617188 170.714844 302.59375 170.691406 C 302.566406 170.65625 302.53125 170.585938 302.511719 170.539062 C 302.484375 170.484375 302.492188 170.535156 302.496094 170.460938 C 302.339844 170.421875 302.476562 170.433594 302.226562 170.433594 C 302.179688 170.433594 302.210938 170.453125 302.128906 170.457031 C 302.109375 170.460938 302.105469 170.457031 302.085938 170.464844 C 302.058594 170.472656 302.09375 170.46875 302.042969 170.488281 C 301.941406 170.359375 301.757812 170.589844 301.710938 170.695312 C 301.699219 170.722656 301.671875 170.808594 301.660156 170.832031 C 301.722656 170.882812 301.730469 170.847656 301.78125 170.917969 C 301.742188 170.984375 301.742188 170.945312 301.714844 171.042969 C 301.859375 171.078125 302.0625 171.078125 302.214844 171.058594 C 302.308594 171.046875 302.28125 171.03125 302.335938 171.007812 Z M 301.457031 172.863281 C 301.558594 172.902344 301.652344 172.953125 301.742188 173.011719 C 301.828125 173.066406 301.898438 173.019531 301.957031 173.085938 C 301.988281 173.15625 301.90625 173.351562 302.019531 173.414062 L 302.109375 173.46875 C 302.238281 173.402344 302.128906 173.308594 302.128906 173.207031 L 302.148438 173.105469 C 302.164062 173.046875 302.140625 173.082031 302.195312 173.058594 C 302.265625 173.035156 302.242188 173.027344 302.277344 172.960938 C 302.308594 172.894531 302.304688 172.90625 302.285156 172.820312 C 302.257812 172.667969 302.164062 172.632812 302.214844 172.570312 C 302.265625 172.507812 302.261719 172.542969 302.257812 172.429688 C 302.257812 172.371094 302.261719 172.308594 302.257812 172.25 C 302.257812 172.101562 302.207031 172.132812 302.585938 172.136719 C 302.613281 172.171875 302.683594 172.25 302.714844 172.273438 C 302.757812 172.300781 302.769531 172.28125 302.792969 172.332031 C 302.855469 172.476562 302.773438 172.558594 302.765625 172.613281 C 302.804688 172.613281 302.835938 172.597656 302.859375 172.605469 C 302.925781 172.625 302.921875 172.6875 303.011719 172.589844 C 303.09375 172.507812 303.035156 172.476562 303.082031 172.417969 C 303.144531 172.339844 303.199219 172.472656 303.21875 172.519531 C 303.25 172.582031 303.285156 172.636719 303.3125 172.703125 C 303.316406 172.710938 303.320312 172.722656 303.324219 172.734375 C 303.332031 172.753906 303.339844 172.757812 303.339844 172.769531 C 303.363281 172.839844 303.265625 172.839844 303.386719 172.933594 C 303.425781 172.964844 303.445312 173 303.476562 173.035156 L 303.609375 173.042969 L 303.65625 173.144531 C 303.65625 173.15625 303.664062 173.171875 303.671875 173.183594 C 303.707031 173.230469 303.667969 173.183594 303.699219 173.203125 C 303.722656 173.21875 303.714844 173.207031 303.730469 173.226562 C 303.785156 173.296875 303.761719 173.417969 303.761719 173.515625 C 303.761719 173.578125 303.71875 173.546875 303.730469 173.644531 C 303.789062 173.667969 303.785156 173.664062 303.859375 173.664062 C 303.882812 173.71875 303.878906 173.683594 303.890625 173.757812 C 303.898438 173.8125 303.910156 173.8125 303.941406 173.847656 C 303.988281 173.90625 303.980469 173.996094 303.890625 173.976562 C 303.746094 173.945312 303.78125 173.867188 303.472656 173.867188 C 303.488281 173.8125 303.519531 173.785156 303.539062 173.734375 C 303.5625 173.671875 303.625 173.566406 303.617188 173.511719 C 303.515625 173.488281 303.511719 173.539062 303.5 173.582031 C 303.472656 173.585938 303.28125 173.609375 303.265625 173.621094 C 303.277344 173.636719 303.292969 173.640625 303.320312 173.640625 L 303.316406 173.738281 C 303.167969 173.738281 303.210938 173.734375 303.144531 173.65625 C 303.101562 173.597656 303.011719 173.632812 302.949219 173.65625 C 302.855469 173.695312 302.851562 173.691406 302.804688 173.777344 C 302.765625 173.847656 302.699219 173.855469 302.691406 173.933594 C 302.785156 173.925781 302.769531 173.835938 302.878906 173.765625 C 302.921875 173.738281 303.027344 173.667969 303.085938 173.691406 C 303.203125 173.734375 303.039062 173.8125 303.15625 173.914062 C 303.179688 173.933594 303.214844 173.9375 303.242188 173.953125 C 303.324219 173.988281 303.371094 173.976562 303.457031 173.957031 C 303.457031 174.0625 303.460938 174.046875 303.40625 174.101562 C 303.363281 174.140625 303.339844 174.152344 303.273438 174.164062 C 303.214844 174.171875 303.207031 174.203125 303.15625 174.238281 C 303.101562 174.277344 303.101562 174.277344 303.015625 174.277344 C 302.996094 174.171875 303.050781 174.226562 303.050781 174.148438 C 302.941406 174.140625 302.996094 174.175781 302.910156 174.199219 C 302.859375 174.210938 302.835938 174.214844 302.800781 174.25 L 302.71875 174.324219 C 302.699219 174.359375 302.714844 174.417969 302.714844 174.464844 C 302.65625 174.484375 302.601562 174.503906 302.550781 174.542969 C 302.480469 174.59375 302.492188 174.613281 302.453125 174.699219 C 302.425781 174.757812 302.402344 174.808594 302.378906 174.882812 C 302.320312 175.082031 302.339844 175.015625 302.234375 175.117188 C 302.175781 175.175781 302.070312 175.222656 302.03125 175.296875 C 301.945312 175.445312 302.117188 175.503906 302.113281 175.746094 L 302.113281 175.789062 C 302.082031 175.789062 302.046875 175.789062 302.023438 175.78125 C 301.984375 175.761719 301.9375 175.644531 301.921875 175.597656 C 301.855469 175.417969 301.855469 175.382812 301.511719 175.421875 L 301.496094 175.484375 C 301.375 175.503906 301.371094 175.4375 301.261719 175.4375 C 301.203125 175.4375 301.070312 175.546875 301.070312 175.597656 C 301.070312 175.957031 301.039062 175.863281 301.144531 176.058594 C 301.171875 176.109375 301.191406 176.167969 301.253906 176.183594 C 301.386719 176.214844 301.484375 176.132812 301.503906 176 C 301.621094 176 301.601562 175.988281 301.683594 176.035156 C 301.675781 176.140625 301.648438 176.152344 301.648438 176.347656 C 301.714844 176.386719 301.820312 176.394531 301.898438 176.425781 C 301.988281 176.46875 301.960938 176.59375 301.960938 176.714844 C 301.972656 176.738281 302.007812 176.769531 302.027344 176.785156 C 302.074219 176.824219 302.078125 176.808594 302.132812 176.804688 C 302.308594 176.785156 302.234375 176.832031 302.355469 176.859375 C 302.402344 176.832031 302.417969 176.773438 302.488281 176.742188 C 302.519531 176.730469 302.554688 176.722656 302.585938 176.710938 C 302.695312 176.671875 302.539062 176.574219 302.863281 176.734375 L 302.953125 176.78125 C 303.054688 176.828125 303.234375 176.765625 303.300781 176.804688 C 303.34375 176.832031 303.3125 176.835938 303.347656 176.863281 C 303.371094 176.882812 303.433594 176.890625 303.492188 176.933594 C 303.53125 176.964844 303.648438 177.070312 303.679688 177.078125 C 303.828125 177.113281 303.992188 177.050781 304.105469 177.28125 C 304.191406 177.464844 304.070312 177.410156 304.277344 177.449219 C 304.320312 177.457031 304.347656 177.46875 304.394531 177.484375 C 304.566406 177.535156 304.535156 177.570312 304.660156 177.554688 C 304.761719 177.539062 305.003906 177.667969 305.09375 177.703125 C 305.09375 177.917969 305.074219 177.882812 304.949219 178 C 304.902344 178.042969 304.851562 178.066406 304.832031 178.109375 C 304.820312 178.128906 304.800781 178.242188 304.789062 178.285156 C 304.753906 178.378906 304.6875 178.492188 304.605469 178.546875 C 304.558594 178.574219 304.445312 178.535156 304.261719 178.660156 C 304.210938 178.695312 304.207031 178.78125 304.058594 178.902344 C 304.03125 178.921875 304.015625 178.925781 303.996094 178.945312 C 303.957031 178.992188 303.996094 178.980469 303.925781 178.996094 C 303.710938 179.039062 303.796875 179.113281 303.625 179.136719 C 303.574219 179.140625 303.488281 179.164062 303.449219 179.183594 C 303.359375 179.242188 303.316406 179.320312 303.238281 179.363281 C 303.21875 179.375 303.234375 179.363281 303.21875 179.378906 C 303.207031 179.386719 303.167969 179.417969 303.089844 179.375 C 303.039062 179.351562 302.976562 179.371094 302.917969 179.355469 C 302.914062 179.265625 302.878906 179.351562 302.914062 179.265625 C 302.933594 179.214844 302.933594 179.195312 302.902344 179.160156 C 302.820312 179.074219 302.824219 179.074219 302.871094 178.964844 C 302.925781 178.832031 302.847656 178.835938 302.882812 178.742188 C 302.890625 178.71875 302.890625 178.738281 302.894531 178.691406 L 302.902344 178.382812 C 302.894531 178.34375 302.902344 178.378906 302.882812 178.351562 C 302.839844 178.296875 302.859375 178.296875 302.785156 178.265625 C 302.558594 178.171875 302.542969 178.125 302.402344 177.941406 C 302.382812 177.914062 302.375 177.890625 302.355469 177.871094 C 302.070312 177.507812 302.207031 177.695312 302.179688 177.472656 C 302.175781 177.433594 302.175781 177.390625 302.179688 177.351562 C 302.226562 177.308594 302.339844 177.195312 302.339844 177.128906 C 302.339844 177.0625 302.285156 176.925781 302.214844 176.925781 C 302.015625 176.925781 302.125 176.976562 301.929688 176.863281 C 301.816406 176.792969 301.761719 176.613281 301.640625 176.570312 C 301.597656 176.554688 301.597656 176.554688 301.558594 176.535156 C 301.515625 176.511719 301.5 176.523438 301.46875 176.507812 C 301.4375 176.496094 301.445312 176.476562 301.40625 176.457031 C 301.359375 176.429688 301.371094 176.445312 301.335938 176.40625 C 301.289062 176.359375 301.21875 176.371094 301.15625 176.367188 C 301.097656 176.363281 301.058594 176.320312 301.003906 176.296875 C 300.839844 176.226562 300.6875 176.136719 300.636719 175.960938 C 300.605469 175.839844 300.519531 175.773438 300.453125 175.675781 L 300.207031 175.285156 C 300.179688 175.25 300.203125 175.269531 300.171875 175.257812 C 300.160156 175.296875 300.164062 175.304688 300.183594 175.332031 C 300.238281 175.402344 300.191406 175.402344 300.238281 175.4375 L 300.285156 175.515625 C 300.300781 175.554688 300.320312 175.582031 300.347656 175.625 C 300.382812 175.6875 300.511719 175.753906 300.414062 175.832031 C 300.320312 175.820312 300.246094 175.613281 300.195312 175.542969 C 300.15625 175.492188 300.132812 175.433594 300.105469 175.378906 C 300.054688 175.28125 300.03125 175.09375 299.9375 175.023438 C 299.839844 174.953125 299.675781 174.601562 299.675781 174.515625 C 299.675781 174.382812 299.660156 174.25 299.691406 174.113281 C 299.699219 174.066406 299.71875 174.074219 299.695312 174.019531 C 299.648438 173.925781 299.710938 173.917969 299.628906 173.816406 C 299.515625 173.675781 299.617188 173.628906 299.550781 173.503906 C 299.535156 173.472656 299.527344 173.457031 299.496094 173.433594 C 299.445312 173.394531 299.574219 173.253906 299.382812 173.253906 C 299.382812 173.179688 299.339844 173.101562 299.328125 173.023438 C 299.324219 172.980469 299.335938 172.996094 299.316406 172.964844 L 299.253906 172.875 C 299.210938 172.835938 299.199219 172.855469 299.167969 172.878906 C 299.125 172.917969 299.144531 172.890625 299.109375 172.90625 C 299.074219 172.921875 299.0625 172.976562 299.046875 173.011719 C 299.007812 173.128906 299.066406 173.222656 298.945312 173.253906 C 298.90625 173.1875 298.949219 173.132812 298.914062 173.09375 C 298.890625 173.210938 298.867188 173.148438 298.851562 173.230469 C 298.949219 172.707031 299.128906 172.210938 299.371094 171.753906 C 299.363281 171.769531 299.363281 171.785156 299.363281 171.792969 C 299.402344 171.816406 299.445312 171.773438 299.492188 171.757812 C 299.550781 171.738281 299.589844 171.746094 299.664062 171.742188 C 299.679688 171.714844 299.683594 171.699219 299.699219 171.671875 C 299.714844 171.640625 299.734375 171.625 299.75 171.605469 C 299.828125 171.523438 299.839844 171.546875 299.9375 171.546875 C 299.996094 171.546875 300.085938 171.476562 300.140625 171.476562 C 300.183594 171.476562 300.265625 171.5 300.308594 171.519531 C 300.34375 171.53125 300.335938 171.527344 300.355469 171.546875 L 300.347656 171.632812 C 300.371094 171.640625 300.453125 171.605469 300.542969 171.605469 C 300.585938 171.605469 300.578125 171.640625 300.609375 171.664062 C 300.625 171.671875 300.625 171.671875 300.644531 171.675781 C 300.648438 171.59375 300.664062 171.601562 300.617188 171.550781 C 300.574219 171.503906 300.597656 171.511719 300.53125 171.511719 C 300.488281 171.511719 300.503906 171.574219 300.429688 171.492188 C 300.371094 171.425781 300.378906 171.46875 300.3125 171.433594 C 300.300781 171.367188 300.335938 171.34375 300.386719 171.328125 C 300.464844 171.308594 300.449219 171.316406 300.496094 171.261719 C 300.433594 171.230469 300.425781 171.285156 300.335938 171.269531 C 300.308594 171.234375 300.335938 171.265625 300.324219 171.238281 L 300.277344 171.160156 C 300.25 171.199219 300.230469 171.195312 300.195312 171.230469 C 300.164062 171.269531 300.148438 171.277344 300.085938 171.261719 C 300.082031 171.132812 300.195312 170.9375 300.28125 170.839844 C 300.316406 170.804688 300.410156 170.792969 300.46875 170.792969 C 300.519531 170.792969 300.601562 170.863281 300.628906 170.886719 C 300.660156 170.910156 300.671875 170.925781 300.699219 170.949219 L 300.734375 170.976562 C 300.761719 171.003906 300.726562 170.996094 300.777344 171.003906 C 300.777344 171.003906 300.777344 171 300.777344 171 C 300.785156 171.019531 300.785156 170.988281 300.785156 170.984375 C 300.808594 170.914062 300.8125 170.839844 300.847656 170.769531 C 300.875 170.71875 301.007812 170.605469 301.007812 170.730469 C 301.007812 170.78125 300.972656 170.8125 300.933594 170.824219 C 300.933594 170.890625 300.929688 170.964844 300.933594 171.03125 C 300.9375 171.164062 301.078125 171.074219 301.039062 171.214844 C 301.03125 171.25 301.007812 171.253906 300.984375 171.273438 C 301.011719 171.421875 300.941406 171.382812 300.875 171.40625 L 300.855469 171.414062 L 300.832031 171.425781 L 300.828125 171.429688 C 300.828125 171.429688 300.824219 171.429688 300.820312 171.433594 C 300.832031 171.460938 300.878906 171.480469 300.902344 171.507812 L 301.03125 171.503906 C 301.070312 171.464844 301.09375 171.445312 301.121094 171.378906 C 301.148438 171.308594 301.148438 171.277344 301.199219 171.222656 C 301.300781 171.222656 301.234375 171.25 301.296875 171.269531 C 301.328125 171.269531 301.382812 171.273438 301.363281 171.226562 C 301.355469 171.207031 301.289062 171.191406 301.289062 171.144531 C 301.289062 170.953125 301.328125 171 301.363281 170.9375 C 301.398438 170.878906 301.359375 170.890625 301.464844 170.890625 C 301.507812 170.890625 301.535156 171.027344 301.535156 171.070312 C 301.535156 171.152344 301.507812 171.109375 301.554688 171.183594 C 301.582031 171.230469 301.574219 171.261719 301.59375 171.308594 C 301.632812 171.292969 301.648438 171.238281 301.660156 171.195312 C 301.667969 171.203125 301.671875 171.203125 301.675781 171.203125 C 301.675781 171.207031 301.675781 171.210938 301.679688 171.21875 C 301.683594 171.226562 301.683594 171.242188 301.6875 171.25 C 301.722656 171.246094 301.710938 171.238281 301.738281 171.253906 C 301.738281 171.308594 301.699219 171.390625 301.726562 171.449219 C 301.757812 171.457031 301.765625 171.449219 301.796875 171.4375 C 301.804688 171.398438 301.800781 171.363281 301.816406 171.328125 C 301.835938 171.289062 301.859375 171.28125 301.878906 171.253906 C 301.894531 171.175781 301.808594 171.035156 302.109375 171.15625 C 302.109375 171.207031 302.097656 171.261719 302.097656 171.304688 C 302.097656 171.4375 302.144531 171.445312 302.039062 171.542969 C 302.007812 171.570312 302.015625 171.589844 301.96875 171.636719 C 301.972656 171.675781 301.980469 171.664062 301.980469 171.695312 C 301.976562 171.726562 301.964844 171.722656 301.960938 171.761719 C 302.011719 171.828125 302.121094 171.886719 302.105469 171.992188 C 302.042969 172.027344 302.027344 171.972656 301.941406 171.964844 C 301.921875 172.035156 301.929688 172.019531 301.84375 172.03125 C 301.792969 172.035156 301.742188 172.007812 301.734375 171.96875 C 301.722656 171.90625 301.78125 171.902344 301.78125 171.847656 C 301.78125 171.804688 301.773438 171.78125 301.75 171.761719 C 301.699219 171.8125 301.792969 171.847656 301.601562 171.976562 C 301.4375 172.085938 301.550781 172.128906 301.4375 172.167969 C 301.308594 172.21875 301.386719 172.199219 301.285156 172.378906 C 301.234375 172.472656 301.191406 172.53125 301.253906 172.65625 C 301.3125 172.691406 301.304688 172.632812 301.324219 172.71875 C 301.347656 172.8125 301.363281 172.835938 301.457031 172.863281 " fill-opacity="1" fill-rule="evenodd"/></g><g transform="matrix(1, 0, 0, 1, 15, 126)"><g clip-path="url(#5985a59071)"><g fill="#003c25" fill-opacity="1"><g transform="translate(1.323146, 66.839633)"><g><path d="M 4.578125 -63.015625 L 27.125 -63.015625 C 33.175781 -63.015625 38.113281 -61.398438 41.9375 -58.171875 C 45.757812 -54.941406 47.671875 -50.320312 47.671875 -44.3125 C 47.671875 -39.675781 46.507812 -35.789062 44.1875 -32.65625 C 41.875 -29.519531 38.726562 -27.316406 34.75 -26.046875 L 56.453125 0 L 38.203125 0 L 18.9375 -24.90625 L 18.9375 0 L 4.578125 0 Z M 18.9375 -35.0625 L 20.625 -35.0625 C 21.945312 -35.0625 23.066406 -35.085938 23.984375 -35.140625 C 24.898438 -35.191406 25.941406 -35.367188 27.109375 -35.671875 C 28.285156 -35.984375 29.226562 -36.414062 29.9375 -36.96875 C 30.65625 -37.53125 31.269531 -38.34375 31.78125 -39.40625 C 32.289062 -40.476562 32.546875 -41.78125 32.546875 -43.3125 C 32.546875 -44.84375 32.289062 -46.140625 31.78125 -47.203125 C 31.269531 -48.273438 30.65625 -49.09375 29.9375 -49.65625 C 29.226562 -50.21875 28.285156 -50.648438 27.109375 -50.953125 C 25.941406 -51.253906 24.898438 -51.429688 23.984375 -51.484375 C 23.066406 -51.535156 21.945312 -51.5625 20.625 -51.5625 L 18.9375 -51.5625 Z M 18.9375 -35.0625 "/></g></g></g><g fill="#003c25" fill-opacity="1"><g transform="translate(56.01794, 66.839633)"><g><path d="M 5.875 -61.03125 C 7.457031 -62.613281 9.34375 -63.40625 11.53125 -63.40625 C 13.71875 -63.40625 15.601562 -62.613281 17.1875 -61.03125 C 18.769531 -59.457031 19.5625 -57.570312 19.5625 -55.375 C 19.5625 -53.1875 18.769531 -51.300781 17.1875 -49.71875 C 15.601562 -48.144531 13.71875 -47.359375 11.53125 -47.359375 C 9.34375 -47.359375 7.457031 -48.144531 5.875 -49.71875 C 4.300781 -51.300781 3.515625 -53.1875 3.515625 -55.375 C 3.515625 -57.570312 4.300781 -59.457031 5.875 -61.03125 Z M 4.578125 -39.1875 L 4.578125 0 L 18.109375 0 L 18.109375 -39.1875 Z M 4.578125 -39.1875 "/></g></g></g><g fill="#003c25" fill-opacity="1"><g transform="translate(79.087535, 66.839633)"><g><path d="M 8.28125 -4.65625 C 3.925781 -8.53125 1.75 -13.492188 1.75 -19.546875 C 1.75 -25.609375 4.015625 -30.585938 8.546875 -34.484375 C 13.085938 -38.378906 18.691406 -40.328125 25.359375 -40.328125 C 31.929688 -40.328125 37.46875 -38.363281 41.96875 -34.4375 C 46.476562 -30.519531 48.734375 -25.554688 48.734375 -19.546875 C 48.734375 -13.546875 46.53125 -8.597656 42.125 -4.703125 C 37.71875 -0.804688 32.128906 1.140625 25.359375 1.140625 C 18.328125 1.140625 12.632812 -0.789062 8.28125 -4.65625 Z M 18.75 -26.203125 C 17 -24.472656 16.125 -22.253906 16.125 -19.546875 C 16.125 -16.847656 16.960938 -14.644531 18.640625 -12.9375 C 20.316406 -11.238281 22.53125 -10.390625 25.28125 -10.390625 C 27.925781 -10.390625 30.101562 -11.253906 31.8125 -12.984375 C 33.519531 -14.710938 34.375 -16.90625 34.375 -19.5625 C 34.375 -22.257812 33.492188 -24.472656 31.734375 -26.203125 C 29.984375 -27.929688 27.832031 -28.796875 25.28125 -28.796875 C 22.6875 -28.796875 20.507812 -27.929688 18.75 -26.203125 Z M 18.75 -26.203125 "/></g></g></g></g></g><g transform="matrix(1, 0, 0, 1, 144, 126)"><g clip-path="url(#1ec1fd11eb)"><g fill="#5eb23f" fill-opacity="1"><g transform="translate(0.618452, 67.508866)"><g><path d="M 18.921875 -39.0625 L 18.921875 0 L 4.578125 0 L 4.578125 -62.9375 L 18.921875 -62.9375 L 43.953125 -23.875 L 44.09375 -23.875 L 44.09375 -62.9375 L 58.4375 -62.9375 L 58.4375 0 L 44.09375 0 L 19.078125 -39.0625 Z M 18.921875 -39.0625 "/></g></g></g><g fill="#5eb23f" fill-opacity="1"><g transform="translate(63.636494, 67.508866)"><g><path d="M 5.875 -60.953125 C 7.445312 -62.535156 9.328125 -63.328125 11.515625 -63.328125 C 13.703125 -63.328125 15.582031 -62.535156 17.15625 -60.953125 C 18.738281 -59.378906 19.53125 -57.5 19.53125 -55.3125 C 19.53125 -53.125 18.738281 -51.238281 17.15625 -49.65625 C 15.582031 -48.082031 13.703125 -47.296875 11.515625 -47.296875 C 9.328125 -47.296875 7.445312 -48.082031 5.875 -49.65625 C 4.300781 -51.238281 3.515625 -53.125 3.515625 -55.3125 C 3.515625 -57.5 4.300781 -59.378906 5.875 -60.953125 Z M 4.578125 -39.140625 L 4.578125 0 L 18.078125 0 L 18.078125 -39.140625 Z M 4.578125 -39.140625 "/></g></g></g><g fill="#5eb23f" fill-opacity="1"><g transform="translate(86.676981, 67.508866)"><g><path d="M 34.25 -39.140625 L 49.828125 -39.140625 L 19.078125 19.84375 L 3.515625 19.84375 L 17.015625 -6.109375 L -1.53125 -39.140625 L 14.03125 -39.140625 L 24.953125 -19.078125 Z M 34.25 -39.140625 "/></g></g></g><g fill="#5eb23f" fill-opacity="1"><g transform="translate(134.970468, 67.508866)"><g><path d="M 8.265625 -4.65625 C 3.921875 -8.519531 1.75 -13.476562 1.75 -19.53125 C 1.75 -25.582031 4.007812 -30.550781 8.53125 -34.4375 C 13.0625 -38.332031 18.660156 -40.28125 25.328125 -40.28125 C 31.890625 -40.28125 37.421875 -38.320312 41.921875 -34.40625 C 46.421875 -30.488281 48.671875 -25.53125 48.671875 -19.53125 C 48.671875 -13.53125 46.472656 -8.582031 42.078125 -4.6875 C 37.679688 -0.800781 32.097656 1.140625 25.328125 1.140625 C 18.304688 1.140625 12.617188 -0.789062 8.265625 -4.65625 Z M 18.71875 -26.171875 C 16.96875 -24.441406 16.09375 -22.226562 16.09375 -19.53125 C 16.09375 -16.832031 16.929688 -14.628906 18.609375 -12.921875 C 20.296875 -11.222656 22.507812 -10.375 25.25 -10.375 C 27.894531 -10.375 30.066406 -11.238281 31.765625 -12.96875 C 33.472656 -14.695312 34.328125 -16.882812 34.328125 -19.53125 C 34.328125 -22.226562 33.445312 -24.441406 31.6875 -26.171875 C 29.9375 -27.898438 27.789062 -28.765625 25.25 -28.765625 C 22.65625 -28.765625 20.476562 -27.898438 18.71875 -26.171875 Z M 18.71875 -26.171875 "/></g></g></g></g></g><g transform="matrix(1, 0, 0, 1, 264, 196)"><g clip-path="url(#1ab4fa83fa)"><g fill="#003c25" fill-opacity="1"><g transform="translate(0.316657, 36.457611)"><g><path d="M 21.375 -33.15625 L 21.375 -26.53125 L 9.96875 -26.53125 L 9.96875 -19.9375 L 20.890625 -19.9375 L 20.890625 -13.296875 L 9.96875 -13.296875 L 9.96875 -6.625 L 21.375 -6.625 L 21.375 0 L 2.40625 0 L 2.40625 -33.15625 Z M 21.375 -33.15625 "/></g></g></g><g fill="#003c25" fill-opacity="1"><g transform="translate(23.621851, 36.457611)"><g><path d="M 26.28125 0 L 17.6875 0 L 13.140625 -5.828125 L 8.59375 0 L 0 0 L 8.796875 -10.765625 L 1.25 -20.609375 L 9.5625 -20.609375 L 13.140625 -15.828125 L 16.71875 -20.609375 L 25.03125 -20.609375 L 17.484375 -10.765625 Z M 26.28125 0 "/></g></g></g><g fill="#003c25" fill-opacity="1"><g transform="translate(49.900468, 36.457611)"><g><path d="M 3.09375 -32.109375 C 3.925781 -32.941406 4.914062 -33.359375 6.0625 -33.359375 C 7.21875 -33.359375 8.207031 -32.941406 9.03125 -32.109375 C 9.863281 -31.273438 10.28125 -30.28125 10.28125 -29.125 C 10.28125 -27.976562 9.863281 -26.988281 9.03125 -26.15625 C 8.207031 -25.332031 7.21875 -24.921875 6.0625 -24.921875 C 4.914062 -24.921875 3.925781 -25.332031 3.09375 -26.15625 C 2.257812 -26.988281 1.84375 -27.976562 1.84375 -29.125 C 1.84375 -30.28125 2.257812 -31.273438 3.09375 -32.109375 Z M 2.40625 -20.609375 L 2.40625 0 L 9.53125 0 L 9.53125 -20.609375 Z M 2.40625 -20.609375 "/></g></g></g><g fill="#003c25" fill-opacity="1"><g transform="translate(62.03525, 36.457611)"><g><path d="M 2.40625 0 L 2.40625 -20.609375 L 9.53125 -20.609375 L 9.53125 -18.453125 L 9.609375 -18.453125 C 11.453125 -20.296875 13.421875 -21.21875 15.515625 -21.21875 C 17.015625 -21.21875 18.421875 -20.910156 19.734375 -20.296875 C 21.046875 -19.679688 22.035156 -18.726562 22.703125 -17.4375 C 24.796875 -19.957031 27.070312 -21.21875 29.53125 -21.21875 C 31.726562 -21.21875 33.617188 -20.597656 35.203125 -19.359375 C 36.785156 -18.128906 37.578125 -16.203125 37.578125 -13.578125 L 37.578125 0 L 30.46875 0 L 30.46875 -11.65625 C 30.46875 -12.75 30.164062 -13.664062 29.5625 -14.40625 C 28.957031 -15.144531 28.050781 -15.515625 26.84375 -15.515625 C 25.800781 -15.515625 25.003906 -15.195312 24.453125 -14.5625 C 23.898438 -13.9375 23.597656 -13.179688 23.546875 -12.296875 L 23.546875 0 L 16.4375 0 L 16.4375 -11.65625 C 16.4375 -12.75 16.132812 -13.664062 15.53125 -14.40625 C 14.925781 -15.144531 14.019531 -15.515625 12.8125 -15.515625 C 11.71875 -15.515625 10.894531 -15.171875 10.34375 -14.484375 C 9.800781 -13.804688 9.53125 -13 9.53125 -12.0625 L 9.53125 0 Z M 2.40625 0 "/></g></g></g></g></g></svg>